<svg width="100" height="32" viewBox="0 0 100 32" fill="none" xmlns="http://www.w3.org/2000/svg">
<path d="M11.3636 0.399902H20.4257L20.6277 11.8327L26.0823 0.399902H35.2165L34.6104 3.18242H33.9178C33.4752 3.18242 33.1626 3.21125 32.9798 3.26892C32.8066 3.32659 32.6479 3.43232 32.5036 3.5861C32.3593 3.73027 32.2342 3.92731 32.1284 4.1772C32.1092 4.23487 32.0563 4.46555 31.9697 4.86923L29.4156 16.1146C29.3194 16.5375 29.2713 16.8259 29.2713 16.9797C29.2713 17.2007 29.3531 17.3833 29.5166 17.5275C29.6898 17.6621 29.9495 17.7294 30.2958 17.7294H31.3204L30.671 20.5119H21.6089L22.2294 17.7294H22.7778C23.4512 17.7294 23.9178 17.6188 24.1775 17.3978C24.4469 17.1671 24.6585 16.7057 24.8124 16.0137L27.6407 3.32659L19.2424 20.5119H16.847L16.3997 2.89408L13.3983 16.1146C13.3021 16.4991 13.254 16.7682 13.254 16.922C13.254 17.1815 13.3357 17.3833 13.4993 17.5275C13.6628 17.6717 13.8937 17.7438 14.1919 17.7438L14.495 17.7294H15.3463L14.697 20.5119H6.81818L7.4531 17.7294H7.97258C8.54016 17.7294 8.93458 17.6813 9.15584 17.5852C9.38672 17.4891 9.5695 17.3449 9.70419 17.1527C9.84848 16.9508 9.98316 16.5712 10.1082 16.0137L12.6479 4.78273C12.7345 4.38866 12.7778 4.12915 12.7778 4.0042C12.7778 3.78314 12.7104 3.59091 12.5758 3.42751C12.4411 3.26412 12.1765 3.18242 11.7821 3.18242H10.7287L11.3636 0.399902Z" fill="white"/>
<path d="M46.9769 7.37782L47.886 6.12353H51.2049L48.9971 15.783C48.8528 16.4462 48.7807 16.8691 48.7807 17.0518C48.7807 17.2248 48.8432 17.3689 48.9683 17.4843C49.0933 17.59 49.252 17.6429 49.4445 17.6429C49.6465 17.6429 49.911 17.5612 50.2381 17.3978C50.5748 17.2344 50.9307 16.9797 51.3059 16.6337L52.9654 18.5367C52.09 19.3633 51.2338 19.9592 50.3968 20.3245C49.5695 20.6801 48.7229 20.8579 47.8571 20.8579C47.2511 20.8579 46.6979 20.7474 46.1977 20.5263C45.7071 20.3148 45.2886 20.0169 44.9423 19.6324C44.6056 19.248 44.3699 18.8106 44.2352 18.3205C43.8119 18.8395 43.3021 19.3008 42.7056 19.7045C42.1188 20.1082 41.5464 20.4013 40.9885 20.584C40.4401 20.7666 39.8292 20.8579 39.1558 20.8579C38.1169 20.8579 37.203 20.6176 36.4141 20.137C35.6349 19.6565 35.0192 18.9837 34.5671 18.1186C34.1246 17.244 33.9033 16.2011 33.9033 14.9901C33.9033 12.4911 34.7932 10.3333 36.5729 8.51678C38.3526 6.6906 40.392 5.77751 42.6912 5.77751C43.5281 5.77751 44.2689 5.89766 44.9134 6.13794C45.558 6.36862 46.2458 6.78191 46.9769 7.37782ZM45.7937 9.77107C45.2646 9.36739 44.8172 9.09346 44.4517 8.94929C44.0861 8.80512 43.7109 8.73304 43.3261 8.73304C42.0659 8.73304 41.0125 9.41064 40.1659 10.7659C39.329 12.1211 38.9105 13.5868 38.9105 15.1631C38.9105 15.8263 39.0789 16.3693 39.4156 16.7922C39.7523 17.2055 40.1563 17.4122 40.6277 17.4122C41.1568 17.4122 41.6763 17.2248 42.1861 16.8499C42.8884 16.3213 43.5618 15.4514 44.2064 14.2404C44.8605 13.0294 45.3896 11.5396 45.7937 9.77107Z" fill="white"/>
<path d="M57.0058 0.399902H66.7749L66.14 3.18242H65.3608C64.822 3.18242 64.4469 3.23048 64.2352 3.32659C64.0236 3.42271 63.8456 3.57168 63.7013 3.77352C63.5666 3.97536 63.4368 4.34541 63.3117 4.88365L62.1717 9.90083L68.6508 4.72506C69.2184 4.27332 69.5022 3.92731 69.5022 3.68702C69.5022 3.5044 69.4108 3.36984 69.228 3.28334C69.0933 3.21606 68.5835 3.18242 67.6984 3.18242L68.3622 0.399902H77.8571L77.1934 3.18242C76.5681 3.18242 76.063 3.25931 75.6782 3.41309C75.2934 3.55727 74.7547 3.88886 74.0621 4.40788L68.3622 8.73304L72.4459 16.0425C72.8499 16.773 73.2107 17.2344 73.5281 17.4266C73.8456 17.6188 74.4036 17.7197 75.202 17.7294L74.596 20.5119H64.8701L65.4906 17.7294H66.2266C66.7749 17.7294 67.1357 17.6765 67.3088 17.5708C67.482 17.4554 67.5686 17.2968 67.5686 17.095C67.5686 16.9028 67.4483 16.5952 67.2078 16.1723L64.6393 11.5732L61.2049 14.1395L60.772 16.0425C60.6758 16.4655 60.6277 16.7826 60.6277 16.9941C60.6277 17.244 60.7239 17.4314 60.9163 17.5564C61.1087 17.6717 61.5272 17.7294 62.1717 17.7294H62.8355L62.1717 20.5119H52.4315L53.052 17.7294H53.8312C54.3891 17.7294 54.7739 17.6861 54.9856 17.5996C55.2068 17.5035 55.38 17.3641 55.5051 17.1815C55.6397 16.9893 55.7744 16.6096 55.9091 16.0425L58.4776 4.72506C58.5546 4.36943 58.5931 4.11954 58.5931 3.97536C58.5931 3.70624 58.4969 3.4996 58.3045 3.35543C58.1506 3.24009 57.7898 3.18242 57.2222 3.18242H56.3564L57.0058 0.399902Z" fill="white"/>
<path d="M86.1833 5.77751C88.1746 5.77751 89.8389 6.33498 91.1761 7.44991C92.5132 8.55522 93.1818 10.0498 93.1818 11.9337C93.1818 13.5003 92.773 14.9901 91.9553 16.403C91.1376 17.8159 90.0505 18.9116 88.6941 19.6901C87.3473 20.4686 85.8273 20.8579 84.1342 20.8579C81.9697 20.8579 80.2525 20.2716 78.9827 19.099C77.7129 17.9168 77.0779 16.3838 77.0779 14.4999C77.0779 12.9332 77.4772 11.4771 78.2756 10.1315C79.0741 8.77629 80.1659 7.71422 81.5512 6.9453C82.9365 6.16678 84.4805 5.77751 86.1833 5.77751ZM86.039 8.71862C85.404 8.71862 84.7932 8.94929 84.2064 9.41064C83.6292 9.87199 83.1193 10.6505 82.6768 11.7462C82.2343 12.8323 82.013 13.9473 82.013 15.091C82.013 16.0137 82.2102 16.7105 82.6046 17.1815C83.0087 17.6429 83.5281 17.8735 84.1631 17.8735C84.8268 17.8735 85.4473 17.6525 86.0245 17.2103C86.6114 16.7586 87.126 15.9945 87.5686 14.918C88.0111 13.8415 88.2323 12.7074 88.2323 11.5156C88.2323 10.5832 88.0303 9.88641 87.6263 9.42506C87.2318 8.9541 86.7027 8.71862 86.039 8.71862Z" fill="white"/>
<path d="M2.59395 29.9505L2.70234 29.3431C2.05204 29.3648 2.06649 29.0538 2.11707 28.7718L2.31216 27.6726H2.65176C3.28038 27.6726 3.38153 27.8679 3.38153 28.2439C3.38153 28.5476 3.33096 28.8369 3.33096 29.1478C3.33096 29.6396 3.51882 30.0735 4.42201 30.0735C4.86999 30.0735 5.18068 29.9433 5.4697 29.6179C5.65757 29.4009 5.80208 29.1261 5.88156 28.8297L5.40467 28.7284C5.32519 29.0177 5.15901 29.184 4.97114 29.184C4.81218 29.184 4.74715 29.0755 4.7038 28.9164C4.60264 28.5549 4.6749 28.1933 4.47981 27.8245C4.3642 27.6075 4.12576 27.3834 3.77171 27.3472L3.77894 27.3255C4.29917 27.2243 4.43646 26.7759 4.54484 26.4505C4.646 26.1468 4.71103 25.9732 4.82663 25.9009C4.86999 25.872 4.91334 25.8648 4.96392 25.8648C5.02895 25.8648 5.06508 25.9154 5.06508 25.9805C5.06508 26.0311 5.05785 26.0745 5.05785 26.1251C5.05785 26.2408 5.15178 26.4216 5.45525 26.4216C5.92491 26.4216 6.21393 26.0673 6.21393 25.6768C6.21393 25.3586 6.06942 24.9102 5.31074 24.9102C4.47981 24.9102 4.14021 25.3658 3.86564 26.1613C3.77171 26.4288 3.69223 26.7109 3.49714 26.8555C3.3165 26.9929 3.08529 26.9929 2.89743 26.9929H2.42777L2.57228 26.183C2.61563 25.9299 2.66621 25.6334 3.34541 25.6334L3.45379 25.0259H0.852609L0.744226 25.6334C1.40175 25.5828 1.33672 26.0456 1.31504 26.1685L0.859834 28.7718C0.816481 29.0104 0.751452 29.3503 0.101157 29.3431L0 29.9505H2.59395Z" fill="white"/>
<path d="M8.02256 30.0084C9.44598 30.0084 10.3636 28.9092 10.3636 27.7377C10.3636 26.7036 9.59772 26.2263 8.57893 26.2263C7.03989 26.2263 6.25232 27.434 6.25232 28.4536C6.25232 28.996 6.42573 30.0084 8.02256 30.0084ZM8.04424 29.3575C7.79135 29.3575 7.4951 29.2129 7.4951 28.7284C7.4951 28.3018 7.68296 26.8772 8.55725 26.8772C9.11361 26.8772 9.12084 27.3617 9.12084 27.4991C9.12084 28.4681 8.71621 29.3575 8.04424 29.3575Z" fill="white"/>
<path d="M13.8868 28.7212C13.5906 28.9815 13.0631 29.3286 12.5285 29.3286C11.8998 29.3286 11.8204 28.8224 11.8204 28.5549C11.8204 27.6365 12.3984 26.7976 12.9475 26.7976C13.1932 26.7976 13.2871 26.9278 13.2871 27.0507C13.2871 27.0869 13.2799 27.1303 13.2655 27.1664C13.2438 27.2387 13.2221 27.3038 13.2221 27.3761C13.2221 27.5714 13.3955 27.7883 13.7712 27.7883C14.1975 27.7883 14.4649 27.4485 14.4649 27.1592C14.4649 26.7253 13.9519 26.2263 13.0342 26.2263C11.842 26.2263 10.5776 27.1954 10.5776 28.4825C10.5776 29.3359 11.2062 30.0084 12.2611 30.0084C12.9114 30.0084 13.634 29.7336 14.2192 29.1912L13.8868 28.7212Z" fill="white"/>
<path d="M15.4806 26.2842L15.3794 26.8772H15.5023C15.7913 26.8772 15.9719 27.0435 15.9719 27.2821C15.9719 27.7522 15.6901 28.6923 15.3939 28.8947C15.0832 29.1044 14.469 28.902 14.469 29.5311C14.469 29.7914 14.6713 30.0084 14.9965 30.0084C16.0008 30.0084 16.3621 28.5404 16.5644 27.2026L17.0846 29.9505H17.641L19.3318 27.2026L19.0355 28.9237C19.0211 29.0249 18.9994 29.1189 18.9994 29.2201C18.9994 29.3431 18.9849 30.0084 19.8954 30.0084C20.2277 30.0084 20.6468 29.8927 21.1237 29.4877L20.8274 29.0755C20.654 29.2201 20.4806 29.2346 20.4156 29.2346C20.1699 29.2346 20.1627 29.0394 20.1627 28.9743C20.1627 28.9454 20.1627 28.9164 20.1699 28.8875L20.6179 26.2842H19.2089L17.8072 28.6055H17.7855L17.3086 26.2842H15.4806Z" fill="white"/>
<path d="M24.6631 28.6778C24.4174 28.9092 23.8611 29.3575 23.2541 29.3575C22.5822 29.3575 22.5388 28.7935 22.5388 28.6127C22.5388 28.5259 22.546 28.4392 22.5677 28.3524H22.7411C24.4536 28.3524 25.1761 27.7449 25.1761 27.1158C25.1761 26.7253 24.8943 26.2263 23.8828 26.2263C22.64 26.2263 21.296 27.1303 21.296 28.4753C21.296 29.5311 22.1631 30.0084 23.0157 30.0084C23.7672 30.0084 24.4897 29.6323 24.9955 29.1189L24.6631 28.6778ZM22.6689 27.8534C22.8062 27.2532 23.2541 26.7904 23.6949 26.7904C23.955 26.7904 24.1068 26.9423 24.1068 27.1303C24.1068 27.434 23.6877 27.8896 22.6689 27.8534Z" fill="white"/>
<path d="M27.7164 29.9505H28.8436L29.3205 27.1954C29.53 27.0724 29.7323 27.0218 29.8985 27.0218C30.2453 27.0218 30.3537 27.2098 30.3537 27.4051C30.3537 27.4485 30.3392 27.4991 30.3103 27.6437L30.0286 28.9237C30.0069 29.0249 29.9852 29.1189 29.9852 29.2201C29.9852 29.7987 30.3971 30.0084 30.8884 30.0084C31.1991 30.0084 31.6254 29.8999 32.1095 29.4805L31.8205 29.0683C31.6832 29.184 31.5242 29.2346 31.4014 29.2346C31.2424 29.2346 31.1485 29.1478 31.1485 28.9743C31.1485 28.9164 31.163 28.8586 31.1774 28.8007L31.4953 27.3978C31.5242 27.2677 31.5531 27.1447 31.5531 27.0146C31.5531 26.465 31.1485 26.2263 30.6572 26.2263C30.0647 26.2263 29.5372 26.4144 29.2265 26.5662C28.9158 26.2553 28.5112 26.2263 28.3378 26.2263C28.1427 26.2263 27.6658 26.277 27.2684 26.5662L27.319 26.2842H26.936C26.6904 26.3927 26.3002 26.5228 25.621 26.5156L25.5126 27.1086C26.0329 27.1013 26.0112 27.3183 25.9823 27.4774L25.556 29.9505H26.6831L27.16 27.1809C27.3551 27.0724 27.5791 27.0218 27.7597 27.0218C27.991 27.0218 28.2005 27.152 28.1572 27.4051L27.7164 29.9505Z" fill="white"/>
<path d="M34.0457 30.0084C35.4691 30.0084 36.3867 28.9092 36.3867 27.7377C36.3867 26.7036 35.6208 26.2263 34.602 26.2263C33.063 26.2263 32.2754 27.434 32.2754 28.4536C32.2754 28.996 32.4488 30.0084 34.0457 30.0084ZM34.0673 29.3575C33.8144 29.3575 33.5182 29.2129 33.5182 28.7284C33.5182 28.3018 33.7061 26.8772 34.5803 26.8772C35.1367 26.8772 35.1439 27.3617 35.1439 27.4991C35.1439 28.4681 34.7393 29.3575 34.0673 29.3575Z" fill="white"/>
<path d="M37.4533 26.2842L37.3449 26.8772H37.4605C37.6917 26.8772 37.9301 27.0073 37.9301 27.2821C37.9301 27.6799 37.6989 28.6633 37.3521 28.8947C37.0414 29.1044 36.4489 28.902 36.4489 29.5311C36.4489 29.7914 36.6585 30.0084 36.9764 30.0084C38.0602 30.0084 38.3998 28.1861 38.5082 27.6148L38.6382 26.935H39.5559L39.1802 28.9237C39.1585 29.0249 39.144 29.1189 39.144 29.2201C39.144 29.748 39.4981 30.0084 40.04 30.0084C40.3435 30.0084 40.7987 29.9144 41.3189 29.4443L41.0371 29.0394C40.8854 29.1695 40.712 29.2346 40.5602 29.2346C40.3146 29.2346 40.3073 29.0321 40.3073 28.9743C40.3073 28.9454 40.3073 28.9164 40.3146 28.8875L40.8059 26.2842H37.4533Z" fill="white"/>
<path d="M43.3315 30.0084C44.755 30.0084 45.6726 28.9092 45.6726 27.7377C45.6726 26.7036 44.9067 26.2263 43.8879 26.2263C42.3489 26.2263 41.5613 27.434 41.5613 28.4536C41.5613 28.996 41.7347 30.0084 43.3315 30.0084ZM43.3532 29.3575C43.1003 29.3575 42.8041 29.2129 42.8041 28.7284C42.8041 28.3018 42.9919 26.8772 43.8662 26.8772C44.4226 26.8772 44.4298 27.3617 44.4298 27.4991C44.4298 28.4681 44.0252 29.3575 43.3532 29.3575Z" fill="white"/>
<path d="M46.6091 27.1592C46.8403 27.0218 47.2233 26.841 47.6423 26.841C48.1337 26.841 48.2421 27.0869 48.2421 27.2532C48.2421 27.6799 47.7435 27.7883 47.2233 27.9113C46.703 28.0342 45.9588 28.2439 45.9588 28.9815C45.9588 29.5022 46.2984 30.0084 47.534 30.0084C48.0181 30.0084 48.6033 29.9505 49.3042 29.5962L49.138 29.0466C48.7912 29.184 48.2565 29.3575 47.8374 29.3575C47.7291 29.3575 47.6207 29.3431 47.5195 29.2997C47.3461 29.2274 47.2594 29.0972 47.2594 28.9092C47.2594 28.4753 47.7435 28.3668 48.0976 28.2584C48.8707 28.027 49.5788 27.8751 49.5788 27.1809C49.5788 26.9061 49.4704 26.2263 48.1337 26.2263C47.5267 26.2263 46.9342 26.3421 46.3562 26.7036L46.6091 27.1592Z" fill="white"/>
<path d="M51.9907 26.2842H51.5355C51.2826 26.3782 50.8274 26.5228 50.1482 26.5156L50.0398 27.1086C50.4083 27.1013 50.6829 27.1809 50.6251 27.4774L50.336 28.9237C50.3144 29.0249 50.2999 29.1189 50.2999 29.2201C50.2999 29.3431 50.2782 30.0084 51.1959 30.0084C51.4993 30.0084 51.9546 29.9144 52.4748 29.4443L52.193 29.0394C52.0413 29.1695 51.8679 29.2346 51.7161 29.2346C51.4705 29.2346 51.4632 29.0321 51.4632 28.9743C51.4632 28.9454 51.4632 28.9164 51.4705 28.8875L51.9907 26.2842ZM51.4054 25.8792C51.8606 25.8792 52.2436 25.5394 52.2436 25.0838C52.2436 24.7656 52.034 24.4908 51.6511 24.4908C51.1959 24.4908 50.8129 24.8307 50.8129 25.2863C50.8129 25.6044 51.0225 25.8792 51.4054 25.8792Z" fill="white"/>
<path d="M54.4248 26.2842H54.0419C53.7745 26.3927 53.3555 26.5228 52.7268 26.5156L52.6185 27.1086C53.1387 27.1013 53.117 27.3183 53.0881 27.4774L52.9797 28.1354C52.9364 28.3958 52.9292 28.9237 53.7745 28.9237C54.1503 28.9237 54.6127 28.8441 55.0679 28.5693L55.0101 28.9237C54.9956 29.0249 54.974 29.1189 54.974 29.2201C54.974 29.3431 54.9595 30.0084 55.8699 30.0084C56.1734 30.0084 56.6286 29.9144 57.1488 29.4443L56.8526 29.0249C56.6936 29.1912 56.513 29.2346 56.3902 29.2346C56.1445 29.2346 56.1373 29.0394 56.1373 28.9743C56.1373 28.9454 56.1373 28.9164 56.1445 28.8875L56.5925 26.2842H55.4653L55.1835 27.9185C54.9884 28.0487 54.7283 28.1282 54.5188 28.1282C54.1286 28.1282 54.143 27.8968 54.1936 27.6148L54.4248 26.2842Z" fill="white"/>
<path d="M57.5415 29.9505H58.6687L58.9505 28.3162H60.1571L60.0488 28.9237C60.0343 29.0249 60.0126 29.1189 60.0126 29.2201C60.0126 29.3431 59.9982 30.0084 60.9086 30.0084C61.241 30.0084 61.66 29.8927 62.1369 29.4877L61.8407 29.0755C61.6673 29.2201 61.4939 29.2346 61.4288 29.2346C61.1832 29.2346 61.1759 29.0394 61.1759 28.9743C61.1759 28.9454 61.1759 28.9164 61.1832 28.8875L61.6311 26.2842H60.504L60.2655 27.6654H59.0661L59.2973 26.2842H58.9216C58.6759 26.3927 58.2857 26.5228 57.6065 26.5156L57.4982 27.1086C58.0184 27.1013 57.9967 27.3183 57.9678 27.4774L57.5415 29.9505Z" fill="white"/>
<path d="M66.5331 26.2842H65.406L64.9435 28.9598C64.7412 29.1117 64.5244 29.2201 64.2788 29.2201C63.8308 29.2201 63.8308 28.9598 63.8308 28.873C63.8308 28.8007 63.8452 28.7356 63.8597 28.6633L64.3077 26.2842H63.9247C63.6791 26.3854 63.2455 26.5228 62.5952 26.5156L62.4869 27.1086C63.0071 27.1013 62.9854 27.3183 62.9565 27.4774L62.7036 28.8297C62.6747 28.9887 62.653 29.1406 62.653 29.2997C62.653 29.965 63.3467 30.0084 63.7224 30.0084C64.3005 30.0084 64.7123 29.748 64.958 29.5673C65.0808 29.8782 65.406 30.0084 65.8106 30.0084C66.1141 30.0084 66.5693 29.9144 67.0895 29.4443L66.8077 29.0394C66.656 29.1695 66.4826 29.2346 66.3308 29.2346C66.0852 29.2346 66.0779 29.0321 66.0779 28.9743C66.0779 28.9454 66.0779 28.9164 66.0852 28.8875L66.5331 26.2842Z" fill="white"/>
<path d="M71.4442 26.2842H70.317L69.8546 28.9598C69.6523 29.1117 69.4355 29.2201 69.1899 29.2201C68.7419 29.2201 68.7419 28.9598 68.7419 28.873C68.7419 28.8007 68.7563 28.7356 68.7708 28.6633L69.2188 26.2842H68.8358C68.5901 26.3854 68.1566 26.5228 67.5063 26.5156L67.3979 27.1086C67.9182 27.1013 67.8965 27.3183 67.8676 27.4774L67.6147 28.8297C67.5858 28.9887 67.5641 29.1406 67.5641 29.2997C67.5641 29.965 68.2578 30.0084 68.6335 30.0084C69.2115 30.0084 69.6234 29.748 69.8691 29.5673C69.9919 29.8782 70.317 30.0084 70.7217 30.0084C71.0251 30.0084 71.4803 29.9144 72.0006 29.4443L71.7188 29.0394C71.567 29.1695 71.3936 29.2346 71.2419 29.2346C70.9962 29.2346 70.989 29.0321 70.989 28.9743C70.989 28.9454 70.989 28.9164 70.9962 28.8875L71.4442 26.2842ZM69.8329 25.8792C70.7433 25.8792 71.3431 25.4598 71.3431 25.0476C71.3431 24.8668 71.3069 24.6354 70.9746 24.6354C70.8084 24.6354 70.4977 24.6571 70.4399 25.0838C70.411 25.3152 70.1942 25.4381 69.8907 25.4381C69.5439 25.4381 69.45 25.279 69.45 25.1778C69.45 25.1127 69.4716 25.0476 69.4716 24.9825C69.4716 24.8524 69.4427 24.6354 69.0526 24.6354C68.6768 24.6354 68.5829 24.903 68.5829 25.0476C68.5829 25.373 68.8647 25.8792 69.8329 25.8792Z" fill="white"/>
<path d="M74.3495 25.0259L74.2483 25.6189C74.8408 25.6117 74.8408 25.8865 74.7902 26.1902L74.335 28.8007C74.2772 29.1478 74.1761 29.3648 73.598 29.3575L73.4969 29.9505H76.9073C77.9984 29.9505 78.2079 30.2904 78.3163 30.7243C78.3669 30.934 78.403 31.2305 78.4174 31.4619H79.075L79.1544 29.2708H78.9738C78.8293 29.2708 78.4897 29.2708 78.5764 28.779L79.0316 26.1757C79.0677 25.9516 79.1183 25.6117 79.7614 25.6189L79.8625 25.0259H77.3336L77.2325 25.6189C77.8828 25.6189 77.8105 25.9588 77.7744 26.1757L77.2903 28.9454C77.2397 29.2346 77.0735 29.2708 76.9145 29.2708H75.8235C75.7585 29.2708 75.5128 29.2635 75.5634 28.9671L76.0475 26.1902C76.0981 25.8937 76.1631 25.6189 76.7773 25.6189L76.8784 25.0259H74.3495Z" fill="white"/>
<path d="M82.8975 28.6778C82.6519 28.9092 82.0955 29.3575 81.4886 29.3575C80.8166 29.3575 80.7732 28.7935 80.7732 28.6127C80.7732 28.5259 80.7805 28.4392 80.8021 28.3524H80.9756C82.688 28.3524 83.4105 27.7449 83.4105 27.1158C83.4105 26.7253 83.1288 26.2263 82.1172 26.2263C80.8744 26.2263 79.5305 27.1303 79.5305 28.4753C79.5305 29.5311 80.3975 30.0084 81.2501 30.0084C82.0016 30.0084 82.7241 29.6323 83.2299 29.1189L82.8975 28.6778ZM80.9033 27.8534C81.0406 27.2532 81.4886 26.7904 81.9293 26.7904C82.1894 26.7904 82.3412 26.9423 82.3412 27.1303C82.3412 27.434 81.9221 27.8896 80.9033 27.8534Z" fill="white"/>
<path d="M83.7904 29.9505H84.9176L85.1993 28.3162H86.406L86.2976 28.9237C86.2832 29.0249 86.2615 29.1189 86.2615 29.2201C86.2615 29.3431 86.247 30.0084 87.1575 30.0084C87.4898 30.0084 87.9089 29.8927 88.3858 29.4877L88.0896 29.0755C87.9161 29.2201 87.7427 29.2346 87.6777 29.2346C87.432 29.2346 87.4248 29.0394 87.4248 28.9743C87.4248 28.9454 87.4248 28.9164 87.432 28.8875L87.88 26.2842H86.7528L86.5144 27.6654H85.315L85.5462 26.2842H85.1705C84.9248 26.3927 84.5346 26.5228 83.8554 26.5156L83.747 27.1086C84.2673 27.1013 84.2456 27.3183 84.2167 27.4774L83.7904 29.9505Z" fill="white"/>
<path d="M90.9395 29.9505H92.0667L92.5436 27.1954C92.7531 27.0724 92.9554 27.0218 93.1216 27.0218C93.4684 27.0218 93.5768 27.2098 93.5768 27.4051C93.5768 27.4485 93.5624 27.4991 93.5335 27.6437L93.2517 28.9237C93.23 29.0249 93.2083 29.1189 93.2083 29.2201C93.2083 29.7987 93.6202 30.0084 94.1115 30.0084C94.4222 30.0084 94.8485 29.8999 95.3326 29.4805L95.0436 29.0683C94.9063 29.184 94.7474 29.2346 94.6245 29.2346C94.4656 29.2346 94.3716 29.1478 94.3716 28.9743C94.3716 28.9164 94.3861 28.8586 94.4005 28.8007L94.7184 27.3978C94.7473 27.2677 94.7762 27.1447 94.7762 27.0146C94.7762 26.465 94.3716 26.2263 93.8803 26.2263C93.2878 26.2263 92.7603 26.4144 92.4496 26.5662C92.1389 26.2553 91.7343 26.2263 91.5609 26.2263C91.3658 26.2263 90.8889 26.277 90.4915 26.5662L90.5421 26.2842H90.1592C89.9135 26.3927 89.5233 26.5228 88.8441 26.5156L88.7357 27.1086C89.256 27.1013 89.2343 27.3183 89.2054 27.4774L88.7791 29.9505H89.9063L90.3831 27.1809C90.5782 27.0724 90.8022 27.0218 90.9829 27.0218C91.2141 27.0218 91.4236 27.152 91.3803 27.4051L90.9395 29.9505Z" fill="white"/>
<path d="M95.7153 27.1086C96.2355 27.1013 96.2138 27.3183 96.1849 27.4774L95.6792 30.3627C95.5924 30.8689 95.3251 30.8978 95.1156 30.8978H95.0144L94.8988 31.4908H97.276L97.3772 30.8978H97.276C96.7991 30.8978 96.7268 30.8111 96.7847 30.4856L96.9147 29.7553C97.3627 29.9867 97.6878 30.0084 97.8324 30.0084C99.0462 30.0084 100 28.8947 100 27.7594C100 26.7253 99.2847 26.2263 98.5549 26.2263C98.172 26.2263 97.7746 26.371 97.4277 26.7542L97.5072 26.2842H97.1242C96.893 26.3927 96.5101 26.5228 95.8237 26.5156L95.7153 27.1086ZM97.0231 29.1261L97.1315 28.5115C97.2471 27.8606 97.4639 26.9061 98.2659 26.9061C98.6705 26.9061 98.7572 27.2749 98.7572 27.622C98.7572 28.4609 98.3309 29.3648 97.6806 29.3648C97.4494 29.3648 97.2037 29.2635 97.0231 29.1261Z" fill="white"/>
</svg>
