<svg width="48" height="48" viewBox="0 0 48 48" fill="none" xmlns="http://www.w3.org/2000/svg">
<rect width="48" height="48" rx="24" fill="#F05454"/>
<path d="M35.7589 32.0736C35.0105 34.3492 32.7598 36 30.1025 36H17.8975C15.2402 36 12.9895 34.3492 12.2411 32.0736C12.0042 31.3549 11.953 30.5905 12.0392 29.8387L13.0514 21.0159C13.0514 21.0159 13.0514 20 14.1283 20C15.2052 20 15.2052 21.7778 16.5513 21.7778H31.4487C32.7948 21.7778 32.7948 20 33.8717 20C34.9486 20 34.9486 21.0159 34.9486 21.0159L35.9608 29.8387C36.047 30.5905 35.9958 31.3549 35.7589 32.0736Z" fill="white"/>
<path fill-rule="evenodd" clip-rule="evenodd" d="M24 14.6667C21.7909 14.6667 20 16.4575 20 18.6667C20 19.403 19.403 20 18.6667 20C17.9303 20 17.3333 19.403 17.3333 18.6667C17.3333 14.9848 20.3181 12 24 12C27.6819 12 30.6667 14.9848 30.6667 18.6667C30.6667 19.403 30.0697 20 29.3333 20C28.597 20 28 19.403 28 18.6667C28 16.4575 26.2091 14.6667 24 14.6667Z" fill="white"/>
</svg>
