<svg width="100" height="31" viewBox="0 0 100 31" fill="none" xmlns="http://www.w3.org/2000/svg">
<path d="M10.6089 8.68383H3.91295L2.09249 12.5549H0L5.90082 0.167399H8.64197L14.5637 12.5549H12.4294L10.6089 8.68383ZM10.023 7.44926L7.24001 1.54844L4.49885 7.44926H10.023Z" fill="black"/>
<path d="M17.6187 0V12.5549H15.6937V0H17.6187Z" fill="black"/>
<path d="M22.2222 0V12.5549H20.2762V0H22.2222Z" fill="black"/>
<path d="M34.1912 8.1607H25.8213C25.8213 10.316 27.2651 11.6552 29.2111 11.6552C30.8223 11.6552 32.1406 10.7135 32.4126 9.4162L34.1285 9.52082C33.8355 11.4459 31.8058 12.8897 29.1484 12.8897C26.1142 12.8897 23.8544 11.0274 23.8544 8.077C23.8544 5.16845 26.0933 3.24336 29.1274 3.24336C32.0569 3.24336 34.2331 5.00105 34.2331 7.63758C34.2122 7.82591 34.2122 7.9933 34.1912 8.1607ZM32.308 7.21908C32.308 5.52417 30.9479 4.31053 29.1065 4.31053C27.2651 4.31053 25.9887 5.50324 25.8631 7.26093L32.308 7.21908Z" fill="black"/>
<path d="M37.9787 3.62L37.895 5.92174H38.0414C38.2925 4.51977 39.3597 3.51538 41.0128 3.51538C41.3476 3.51538 41.6824 3.55723 41.9962 3.62L41.9544 5.27307C41.5568 5.18937 41.1592 5.1266 40.7407 5.1266C38.9621 5.1266 37.9577 6.38209 37.9577 8.60013V12.5549H36.0117V3.62H37.9787Z" fill="black"/>
<path d="M53.8606 13.2455C53.8606 15.2333 51.4961 16.4051 47.8343 16.4051C44.4863 16.4051 42.4566 15.3379 42.4566 13.7058C42.4566 12.806 43.1053 12.0527 44.1515 11.7389C43.4401 11.425 43.0216 10.9019 43.0216 10.2532C43.0216 9.35342 43.7958 8.78845 45.0094 8.7466V8.6629C44.0259 8.22348 43.3354 7.36556 43.3354 6.34024C43.3354 4.51977 45.2814 3.24336 48.1691 3.24336C49.1944 3.22243 50.1988 3.41076 51.1404 3.82925C51.4333 2.53191 52.4168 1.86231 53.7351 1.90416L53.7979 3.15966C52.7098 3.11781 52.0402 3.51538 51.8519 4.24775C52.5215 4.72902 52.9399 5.48232 52.9399 6.31931C52.9399 8.11885 51.0776 9.37435 48.2737 9.37435C47.0391 9.37435 46.2021 9.0814 45.4698 9.0814C44.842 9.0814 44.4654 9.35342 44.4654 9.79284C44.4654 10.295 45.0931 10.6089 46.1603 10.6089H49.5292C52.2494 10.6089 53.8606 11.6133 53.8606 13.2455ZM51.9355 13.6012C51.9355 12.6805 51.0149 12.1155 49.571 12.1155H46.2021C45.8883 12.1155 45.5744 12.0946 45.2605 12.0527C44.7374 12.3666 44.4235 12.9107 44.3817 13.4965C44.3817 14.7102 45.8046 15.5053 48.0854 15.5053C50.408 15.4844 51.9355 14.7311 51.9355 13.6012ZM45.2605 6.31931C45.2605 7.55388 46.4742 8.43273 48.2109 8.43273C49.8431 8.43273 51.0149 7.57481 51.0149 6.34024C51.0149 5.10567 49.8431 4.22683 48.1063 4.22683C46.4742 4.24775 45.2605 5.06382 45.2605 6.31931Z" fill="black"/>
<path d="M76.7734 7.57481V12.5549H74.8274V7.78406C74.8274 5.87989 73.802 4.72902 72.1281 4.72902C70.3913 4.72902 69.345 5.92174 69.345 7.88868V12.5549H67.399V3.62H69.3241L69.3032 5.83804H69.4497C69.8472 4.3733 71.1446 3.45261 72.8813 3.45261C75.2877 3.45261 76.7734 5.02197 76.7734 7.57481Z" fill="black"/>
<path d="M59.3639 3.30613C61.2053 3.30613 62.7746 4.2896 63.2141 5.64972H63.2978V3.62H65.2438V12.5549H63.2978V10.5043H63.2141C62.7746 11.9063 61.1843 12.8479 59.4057 12.8479C56.4344 12.8479 54.3628 10.7972 54.3628 8.05608C54.3628 5.27307 56.4972 3.30613 59.3639 3.30613ZM59.8242 11.697C61.9167 11.697 63.4024 10.1486 63.4024 8.077C63.4024 5.96359 61.8958 4.47792 59.9498 4.47792C57.8573 4.47792 56.3716 6.02637 56.3716 8.11885C56.3507 10.2323 57.8573 11.697 59.8242 11.697Z" fill="black"/>
<path d="M10.6089 26.4909H3.91295L2.09249 30.362H0L5.90082 17.9954H8.64197L14.5637 30.362H12.4294L10.6089 26.4909ZM10.023 25.2563L7.24001 19.3764L4.47792 25.2563H10.023Z" fill="black"/>
<path d="M25.068 25.9678H16.6981C16.6981 28.123 18.1419 29.4622 20.0879 29.4622C21.6991 29.4622 23.0174 28.5206 23.2894 27.2233L25.0052 27.3279C24.7123 29.253 22.6826 30.6968 20.0251 30.6968C16.991 30.6968 14.7102 28.8345 14.7102 25.8841C14.7102 22.9755 16.9492 21.0504 19.9833 21.0504C22.9127 21.0504 25.0889 22.8081 25.0889 25.4447C25.1099 25.633 25.0889 25.8004 25.068 25.9678ZM23.1848 25.0471C23.1848 23.3522 21.8246 22.1385 19.9833 22.1385C18.1419 22.1385 16.8655 23.3522 16.7399 25.0889L23.1848 25.0471Z" fill="black"/>
<path d="M26.3653 27.5371L28.123 27.4534C28.3951 28.7926 29.5459 29.6715 31.3455 29.6715C32.7684 29.6715 33.7728 29.1274 33.7728 28.2067C33.7728 27.4116 33.1032 26.9094 31.8477 26.7211L29.9226 26.4909C27.7882 26.2189 26.8466 25.2354 26.8466 23.9171C26.8466 22.2431 28.5206 21.1341 30.927 21.1341C33.5007 21.1341 35.2166 22.3896 35.4258 24.1892L33.6891 24.2519C33.5217 22.9127 32.4336 22.1176 30.8642 22.1176C29.525 22.1176 28.6462 22.7035 28.6462 23.6033C28.6462 24.3566 29.2111 24.8169 30.2365 24.9425L32.1825 25.1936C34.275 25.4447 35.6769 26.3235 35.6769 27.8929C35.6769 29.6506 33.8146 30.6968 31.2827 30.6968C28.5415 30.6968 26.6792 29.4622 26.3653 27.5371Z" fill="black"/>
<path d="M53.8606 25.3819V30.3411H51.9146V25.5911C51.9146 23.687 50.9102 22.5361 49.2362 22.5361C47.4995 22.5361 46.4532 23.7288 46.4532 25.6958V30.3411H44.5072V17.7861H46.4532V23.6451H46.5579C46.9554 22.1804 48.2528 21.2597 49.9686 21.2597C52.3959 21.2597 53.8606 22.829 53.8606 25.3819Z" fill="black"/>
<path d="M65.6623 25.9678H57.2923C57.2923 28.123 58.7361 29.4622 60.6822 29.4622C62.2934 29.4622 63.6116 28.5206 63.8837 27.2233L65.5995 27.3279C65.3065 29.253 63.2768 30.6968 60.6194 30.6968C57.5853 30.6968 55.3254 28.8345 55.3254 25.8841C55.3254 22.9755 57.5643 21.0504 60.5985 21.0504C63.5279 21.0504 65.7041 22.8081 65.7041 25.4447C65.7041 25.633 65.6832 25.8004 65.6623 25.9678ZM63.779 25.0471C63.779 23.3522 62.4189 22.1385 60.5775 22.1385C58.7361 22.1385 57.4597 23.3522 57.3342 25.0889L63.779 25.0471Z" fill="black"/>
<path d="M74.4716 18.8533C74.4716 18.1837 75.0157 17.7652 75.8108 17.7652C76.606 17.7652 77.1709 18.1837 77.1709 18.8533C77.1709 19.5229 76.6269 19.9414 75.8108 19.9414C74.9948 19.9414 74.4716 19.502 74.4716 18.8533ZM76.7734 21.4271V30.362H74.8274V21.4271H76.7734Z" fill="black"/>
<path d="M78.7612 25.9259C78.7612 22.9964 81.1048 21.0923 84.2645 21.0923C87.1521 21.0923 89.2028 22.6826 89.3911 24.8378L87.5288 24.9006C87.3614 23.394 86.0013 22.285 84.2436 22.285C82.1929 22.285 80.77 23.8125 80.77 25.8632C80.77 27.9138 82.1929 29.4413 84.3063 29.4413C86.085 29.4413 87.5078 28.3741 87.6752 26.8675L89.4957 26.9094C89.3074 29.0437 87.2777 30.7177 84.2645 30.7177C81.1676 30.7177 78.7612 28.8973 78.7612 25.9259Z" fill="black"/>
<path d="M90.6884 27.5371L92.4461 27.4534C92.7181 28.7926 93.869 29.6715 95.6686 29.6715C97.0914 29.6715 98.0958 29.1274 98.0958 28.2067C98.0958 27.4116 97.4262 26.9094 96.1707 26.7211L94.2457 26.4909C92.1113 26.2189 91.1697 25.2354 91.1697 23.9171C91.1697 22.2431 92.8437 21.1341 95.2501 21.1341C97.8238 21.1341 99.5397 22.3896 99.7489 24.1892L98.0121 24.2519C97.8447 22.9127 96.7566 22.1176 95.1873 22.1176C93.8481 22.1176 92.9692 22.7035 92.9692 23.6033C92.9692 24.3566 93.5342 24.8169 94.5595 24.9425L96.5056 25.1936C98.598 25.4447 100 26.3235 100 27.8929C100 29.6506 98.1377 30.6968 95.6058 30.6968C92.8646 30.6968 91.0023 29.4622 90.6884 27.5371Z" fill="black"/>
<path d="M39.2341 22.6407H42.2892V21.4271H39.2341V19.0416H37.3091V27.0349C37.3091 29.3785 38.5855 30.5085 40.5315 30.5085C41.1383 30.5085 41.7451 30.4457 42.331 30.2992L42.352 28.9391C41.9544 29.0437 41.5568 29.0856 41.1592 29.1065C39.9456 29.1065 39.2551 28.2904 39.2551 26.8466L39.2341 22.6407Z" fill="black"/>
<path d="M69.3451 22.6407H72.4001V21.4271H69.3451V19.0416H67.42V27.0349C67.42 29.3785 68.6964 30.5085 70.6424 30.5085C71.2492 30.5085 71.856 30.4457 72.4419 30.2992L72.4629 28.9391C72.0653 29.0437 71.6677 29.0856 71.2701 29.1065C70.0565 29.1065 69.366 28.2904 69.366 26.8466L69.3451 22.6407Z" fill="black"/>
</svg>
