<svg width="100" height="35" viewBox="0 0 100 35" fill="none" xmlns="http://www.w3.org/2000/svg">
<path d="M10.9092 20.6115C11.505 19.535 11.7767 18.3091 11.6915 17.0817V9.78288C11.7773 8.55688 11.5056 7.33232 10.9092 6.25772V6.2163C13.7763 6.2163 14.439 6.13807 16.0175 6.13807C20.2283 6.13807 20.9692 8.0111 20.9692 9.50676C20.9692 11.0024 20.1869 12.3692 18.3185 12.9997C20.8312 13.4323 21.7102 14.9694 21.7102 16.6261C21.7102 18.8765 20.0903 20.6483 16.0359 20.6483H10.9092V20.6115ZM18.8247 9.62641C18.8247 7.63373 17.711 6.53385 15.6861 6.53385C15.0953 6.51128 14.5044 6.57642 13.9327 6.72713V12.9399H16.1923C18.162 12.9399 18.8247 11.1635 18.8247 9.62641ZM19.3493 16.7274C19.3493 14.7531 18.3921 13.3357 16.3672 13.3357H13.9189V20.0178C14.5178 20.186 15.1378 20.2666 15.7597 20.2571C18.1574 20.2571 19.3447 18.8351 19.3447 16.7274" fill="black"/>
<path d="M27.5364 13.4507C27.5364 9.27206 31.218 5.92177 34.8628 5.92177C38.5076 5.92177 42.2261 9.27206 42.2261 13.4507C42.2261 17.6294 38.5444 20.9474 34.8628 20.9474C31.1812 20.9474 27.5364 17.634 27.5364 13.4507ZM39.7548 13.4507C39.7548 9.39171 38.2361 6.31295 34.8628 6.31295C31.4895 6.31295 30.0261 9.39171 30.0261 13.4507C30.0261 17.5097 31.5263 20.5516 34.8766 20.5516C38.2269 20.5516 39.7686 17.5557 39.7686 13.4507" fill="black"/>
<path d="M52.0146 20.6483V20.6115C52.6068 19.5337 52.8767 18.3085 52.7923 17.0817V6.55225L50.6662 6.63049C49.8102 6.69031 48.3652 8.89929 47.3757 10.3121L47.2193 10.2569L47.9602 6.1933H59.8657L60.6066 10.2569L60.4501 10.3121C59.4008 8.87628 58.034 6.6673 57.1597 6.63049L55.0335 6.55225V17.0817C55.0335 18.7154 55.1716 19.3827 55.8113 20.6115V20.6483H52.0146Z" fill="black"/>
<path d="M65.7286 13.4507C65.7286 9.27206 69.4103 5.92177 73.0551 5.92177C76.6999 5.92177 80.4183 9.27206 80.4183 13.4507C80.4183 17.6294 76.7367 20.9474 73.0551 20.9474C69.3735 20.9474 65.7286 17.634 65.7286 13.4507ZM77.9471 13.4507C77.9471 9.39171 76.4284 6.31295 73.0551 6.31295C69.6818 6.31295 68.2229 9.39171 68.2229 13.4507C68.2229 17.5097 69.7232 20.5516 73.0735 20.5516C76.4238 20.5516 77.9655 17.5557 77.9655 13.4507" fill="black"/>
<path d="M84.4221 20.6483V20.6115C85.5719 19.7941 86.5467 18.7552 87.2892 17.5557L90.0504 13.5335L87.3214 8.93151C86.5621 7.67055 85.9408 6.82377 85.0204 6.24852V6.2117H89.5626V6.24852C89.1944 6.6627 89.2911 7.7902 89.8939 8.81186L91.7071 11.8492L93.1476 9.75987C94.2613 8.16297 94.2797 7.25636 93.7504 6.24852V6.2117H97.0685V6.24852C95.8465 7.04456 94.8042 8.08691 94.0081 9.30887L91.9418 12.245L95.3335 17.9055C96.0929 19.1848 96.7141 20.0362 97.6346 20.6069V20.6437H93.0923V20.6069C93.4605 20.1927 93.3639 19.0698 92.761 18.0435L90.3035 13.9017L88.1406 17.0771C87.0085 18.7338 87.3628 19.5806 87.731 20.5885V20.6253L84.4221 20.6483Z" fill="black"/>
<path d="M99.0566 6.84218C99.1808 6.84218 99.2637 6.79156 99.2637 6.68571C99.2633 6.66347 99.2581 6.64156 99.2486 6.62146C99.239 6.60137 99.2253 6.58354 99.2083 6.56916C99.1913 6.55479 99.1715 6.54421 99.1501 6.53812C99.1287 6.53202 99.1062 6.53057 99.0842 6.53385H98.8219V6.84218H99.0566ZM98.6562 6.38198H99.1164C99.3649 6.38198 99.4524 6.53845 99.4524 6.6489C99.453 6.68736 99.4459 6.72555 99.4316 6.76126C99.4173 6.79697 99.3961 6.82948 99.3691 6.85689C99.3421 6.8843 99.3099 6.90607 99.2745 6.92093C99.239 6.93578 99.2009 6.94343 99.1624 6.94343C99.2499 6.97564 99.3143 7.06308 99.3971 7.20114L99.5214 7.39903H99.3189L99.2315 7.23796C99.1026 7.00785 99.0566 6.96183 98.9323 6.96183H98.8357V7.39903H98.67L98.6562 6.38198ZM98.2742 6.89741C98.2752 7.05305 98.3222 7.20492 98.4094 7.33382C98.4967 7.46273 98.6201 7.56287 98.7643 7.62159C98.9084 7.68031 99.0667 7.69496 99.2192 7.66371C99.3717 7.63245 99.5115 7.55668 99.6209 7.44598C99.7303 7.33529 99.8044 7.19463 99.8339 7.0418C99.8634 6.88898 99.8468 6.73084 99.7864 6.5874C99.726 6.44396 99.6245 6.32164 99.4946 6.23593C99.3646 6.15021 99.2122 6.10495 99.0566 6.10586C98.8483 6.10828 98.6493 6.19274 98.5028 6.34093C98.3564 6.48911 98.2742 6.68906 98.2742 6.89741ZM100 6.89741C99.9945 7.07718 99.9365 7.25141 99.8332 7.39858C99.7298 7.54575 99.5855 7.6594 99.4183 7.7255C99.251 7.79159 99.068 7.80723 98.892 7.77049C98.7159 7.73374 98.5545 7.64622 98.4276 7.51874C98.3007 7.39125 98.214 7.22939 98.1781 7.05315C98.1422 6.87692 98.1588 6.69403 98.2257 6.52709C98.2926 6.36014 98.4069 6.21646 98.5546 6.11379C98.7023 6.01112 98.8768 5.95397 99.0566 5.94939C99.3072 5.95061 99.5472 6.05102 99.724 6.22868C99.9008 6.40633 100 6.64677 100 6.89741Z" fill="black"/>
<path d="M15.341 34.7259C12.9985 34.7259 10.9092 32.8851 10.9092 29.8109C10.9092 26.6125 13.0768 24.7073 15.479 24.7073C17.168 24.7073 18.6038 25.7151 18.7004 27.2062L17.5407 27.3581C17.3797 26.0465 16.4915 25.3424 15.1707 25.3424C13.3851 25.3424 11.9124 26.9991 11.9124 29.4106C11.9124 31.822 13.4771 33.7595 15.5941 33.7595C16.2651 33.764 16.9246 33.5851 17.5013 33.242C18.078 32.8989 18.5499 32.4047 18.8661 31.8128C18.6084 33.8423 16.9701 34.7259 15.3318 34.7259" fill="black"/>
<path d="M23.9468 29.5624C23.9468 32.3237 25.6679 34.0908 27.6284 34.0908C29.5889 34.0908 31.0523 32.4617 31.0523 29.8662C31.0523 27.0681 29.3357 25.3286 27.3155 25.3286C25.378 25.3286 23.9468 26.9715 23.9468 29.5624ZM32.1844 29.7557C32.2084 30.3948 32.1042 31.0322 31.878 31.6303C31.6517 32.2285 31.308 32.7753 30.8671 33.2385C30.4262 33.7017 29.897 34.072 29.3107 34.3274C28.7245 34.5829 28.093 34.7184 27.4535 34.7259C24.9546 34.7259 22.8147 32.8069 22.8147 29.6637C22.7913 29.0254 22.896 28.389 23.1226 27.7919C23.3492 27.1948 23.6932 26.6491 24.1342 26.1871C24.5751 25.7251 25.1042 25.3562 25.6901 25.102C26.276 24.8478 26.9069 24.7136 27.5456 24.7073C30.0445 24.7073 32.1844 26.6125 32.1844 29.7695" fill="black"/>
<path d="M42.019 26.8886L40.8869 27.0267C40.8869 26.1569 40.4267 25.2733 39.2899 25.2733C39.0818 25.2597 38.8731 25.2908 38.6779 25.3644C38.4827 25.4381 38.3055 25.5526 38.1582 25.7004C38.0109 25.8481 37.8968 26.0257 37.8238 26.2211C37.7507 26.4165 37.7202 26.6253 37.7345 26.8334C37.7345 27.6618 38.2407 28.2831 39.2623 28.8997L40.2748 29.5348C41.4023 30.2389 42.2491 30.9154 42.2491 32.158C42.2491 33.649 40.804 34.7121 39.1703 34.7121C37.2743 34.7121 36.225 33.5386 36.2618 32.0337L37.3939 31.8957C37.4353 33.1244 37.8541 34.1461 39.3728 34.1461C39.6084 34.1598 39.8444 34.1254 40.0664 34.0451C40.2883 33.9647 40.4916 33.84 40.6638 33.6785C40.836 33.5171 40.9736 33.3223 41.0681 33.1059C41.1626 32.8896 41.2121 32.6563 41.2136 32.4203C41.2136 31.5505 40.7212 30.9983 39.5385 30.2665L38.3511 29.521C37.3663 28.8767 36.7404 28.0484 36.7404 27.0543C36.7404 25.8808 37.7345 24.7073 39.4694 24.7073C41.0387 24.7073 42.019 25.7151 42.019 26.8886Z" fill="black"/>
<path d="M56.2208 27.7814L52.2493 34.818L48.1305 27.7952V34.5418H47.3803V24.6106L52.415 33.175L57.2149 24.6106V34.5418H56.2208V27.7814Z" fill="black"/>
<path d="M62.7971 24.8868H67.7075V25.5909H63.7912V29.1068H67.008V29.7695H63.7912V33.8377H67.8134V34.5418H62.7971V24.8868Z" fill="black"/>
<path d="M71.9092 24.8868H79.139V25.5909H76.0142V34.5418H75.034V25.5909H71.9092V24.8868Z" fill="black"/>
<path d="M84.7857 24.8868H83.7916V34.5464H84.7857V24.8868Z" fill="black"/>
<path d="M94.1048 34.7259C91.7578 34.7259 89.673 32.8851 89.673 29.8109C89.673 26.6125 91.8406 24.7073 94.2429 24.7073C95.9318 24.7073 97.363 25.7151 97.4643 27.2062L96.3046 27.3581C96.1435 26.0465 95.2553 25.3424 93.9299 25.3424C92.1443 25.3424 90.6717 26.9991 90.6717 29.4106C90.6717 31.822 92.241 33.7595 94.3533 33.7595C95.0245 33.7618 95.6837 33.582 96.2608 33.2392C96.8378 32.8964 97.311 32.4034 97.63 31.8128C97.3676 33.8423 95.7339 34.7259 94.0956 34.7259" fill="black"/>
<path d="M12.0367 0.799709C13.9499 0.958217 15.8429 1.30505 17.688 1.83517C15.3395 0.774024 12.8115 0.16662 10.2373 0.0449754C7.81018 -0.109498 5.37414 0.134572 3.02591 0.767495C1.16209 1.32894 0.0299875 2.18032 0.00237531 3.09612C-0.0482471 3.93369 0.706487 4.8449 2.63014 5.60423C1.88921 5.05659 1.60388 4.54116 1.62689 4.00273C1.68672 2.92585 2.91086 2.08828 4.78389 1.51763C7.13276 0.8218 9.59237 0.578183 12.0321 0.799709" fill="black"/>
<path d="M13.6152 1.6741C15.2657 1.80425 16.905 2.05029 18.521 2.41042C16.3853 1.68908 14.1658 1.24518 11.917 1.08964C9.57185 0.886925 7.20939 1.12099 4.94956 1.77994C3.15017 2.31838 2.05488 3.16056 2.02727 4.00733C1.99966 4.59639 2.39083 5.15324 3.30203 5.7607C3.70781 6.04522 4.15915 6.25844 4.63663 6.39118C4.32143 6.25152 4.05078 6.02777 3.85433 5.74446C3.65788 5.46115 3.54323 5.12923 3.52293 4.78508C3.58276 3.74041 4.77008 2.94426 6.58789 2.37361C8.87571 1.73749 11.2561 1.50086 13.6244 1.6741" fill="black"/>
<path d="M15.5434 2.46565C16.9537 2.57372 18.3565 2.76271 19.7451 3.0317C17.7141 2.44434 15.6243 2.08319 13.514 1.95482C11.2375 1.8119 8.95286 2.03881 6.74896 2.62672C5.00019 3.14675 3.94172 3.9429 3.9141 4.78507C3.88189 5.39254 4.37431 6.02762 5.32233 6.59367C6.00895 7.01153 6.75544 7.32192 7.53591 7.51408L7.24598 7.35761C6.24274 6.78696 5.63527 6.11046 5.66288 5.37413C5.72271 4.38009 6.88702 3.62076 8.66341 3.10073C10.9162 2.52396 13.2459 2.30652 15.5665 2.45644" fill="black"/>
</svg>
