<svg width="18" height="18" viewBox="0 0 18 18" fill="none" xmlns="http://www.w3.org/2000/svg">
<path d="M17.8192 15.0552C17.2579 16.7619 15.5698 18 13.5769 18H4.42309C2.43017 18 0.742143 16.7619 0.180807 15.0552C0.00311874 14.5162 -0.035246 13.9429 0.029369 13.379L0.78858 6.7619C0.78858 6.7619 0.78858 6 1.59625 6C2.40392 6 2.40392 7.33333 3.4135 7.33333H14.5865C15.5961 7.33333 15.5961 6 16.4038 6C17.2114 6 17.2114 6.7619 17.2114 6.7619L17.9706 13.379C18.0352 13.9429 17.9969 14.5162 17.8192 15.0552Z" fill="#42414D"/>
<path fill-rule="evenodd" clip-rule="evenodd" d="M9 2C7.34315 2 6 3.34315 6 5C6 5.55228 5.55228 6 5 6C4.44772 6 4 5.55228 4 5C4 2.23858 6.23858 0 9 0C11.7614 0 14 2.23858 14 5C14 5.55228 13.5523 6 13 6C12.4477 6 12 5.55228 12 5C12 3.34315 10.6569 2 9 2Z" fill="#42414D"/>
</svg>
