<svg width="31" height="24" viewBox="0 0 31 24" fill="none" xmlns="http://www.w3.org/2000/svg">
<path d="M30.4832 0.393902C30.4189 0.147242 30.1783 -0.0171975 29.9224 0.00143599C21.0646 0.669915 13.7006 6.55744 10.0364 15.8283C7.99618 12.7934 4.91443 12.3093 3.15792 12.3093C1.85215 12.3093 0.929016 12.5588 0.890262 12.5695C0.683871 12.6263 0.532245 12.7973 0.504504 13.0043C0.476764 13.2114 0.578879 13.4145 0.763272 13.5207C5.00992 15.9642 7.62093 20.0666 9.06335 23.0772C9.33599 23.6464 9.8851 24 10.4964 24C11.1999 24 11.7995 23.5535 12.0241 22.862C17.257 6.73521 30.052 1.05454 30.1811 0.999087C30.4193 0.896367 30.5475 0.640859 30.4837 0.394408L30.4832 0.393902Z" fill="#42414D"/>
</svg>
