<svg width="100" height="26" viewBox="0 0 100 26" fill="none" xmlns="http://www.w3.org/2000/svg">
<path d="M12.4058 23.879H13.0628V17.6049H12.4058V23.879ZM17.2897 17.8697H16.6378V19.3109H15.6193V19.8202H16.6378V22.835C16.6292 23.0465 16.6621 23.2576 16.7346 23.4564C16.8045 23.6269 16.9377 23.7638 17.1064 23.8383C17.3526 23.9347 17.6164 23.9781 17.8805 23.9656C18.1207 23.9649 18.3606 23.9478 18.5985 23.9147V23.3494C18.3854 23.39 18.1687 23.4088 17.9518 23.4054C17.7702 23.4229 17.5886 23.372 17.4425 23.2628C17.3919 23.2026 17.3541 23.1327 17.3313 23.0574C17.3086 22.9822 17.3013 22.903 17.3101 22.8249V19.8049H18.5883V19.2956H17.2948L17.2897 17.8697ZM25.7181 24.5717C25.7361 24.7525 25.6871 24.9337 25.5806 25.0809C25.5011 25.1484 25.4084 25.1986 25.3085 25.2284C25.2086 25.2582 25.1035 25.2669 25 25.2541H24.7607H24.557V25.799H25.1783C25.3516 25.8151 25.5264 25.7919 25.6896 25.7311C25.8527 25.6702 26 25.5733 26.1204 25.4476C26.3051 25.1905 26.3951 24.8774 26.3751 24.5615V19.3109H25.7181V24.5717ZM26.3751 17.5539H25.7181V18.5114H26.3751V17.5539ZM33.2604 21.786C33.2744 22.0116 33.2414 22.2377 33.1634 22.4498C33.0853 22.662 32.964 22.8556 32.8071 23.0184C32.4114 23.3466 31.9041 23.509 31.3914 23.4716C31.0312 23.4985 30.6724 23.4034 30.3728 23.2017C30.239 23.0851 30.1346 22.9385 30.0682 22.7739C30.0018 22.6093 29.9753 22.4313 29.9909 22.2545V19.3109H29.3186V22.1424C29.3118 22.4688 29.3725 22.793 29.4969 23.0948C29.6224 23.3799 29.8416 23.6135 30.1182 23.7568C30.4929 23.935 30.9055 24.0189 31.3201 24.0013C31.6296 24.0025 31.9368 23.9473 32.2266 23.8383C32.4539 23.7519 32.6642 23.626 32.8479 23.4665C33.0009 23.3335 33.1226 23.1683 33.2043 22.9827V23.879H33.8613V19.2956H33.24V21.7707L33.2604 21.786ZM40.2679 21.4753C39.8934 21.3666 39.5099 21.2916 39.122 21.2512C38.6586 21.1901 38.3021 21.1341 38.0577 21.0781C37.8723 21.0487 37.6973 20.9734 37.5484 20.8591C37.501 20.8113 37.4646 20.7537 37.4418 20.6903C37.4189 20.627 37.4101 20.5595 37.416 20.4924C37.4089 20.3985 37.4226 20.3042 37.456 20.2162C37.4895 20.1282 37.5419 20.0486 37.6095 19.9831C37.754 19.859 37.9305 19.7778 38.1188 19.7489C38.3333 19.7052 38.5518 19.6847 38.7707 19.6878C39.1448 19.6619 39.5195 19.7302 39.8605 19.8864C39.9954 19.9658 40.1111 20.0741 40.1991 20.2035C40.2872 20.333 40.3455 20.4803 40.3698 20.635H40.9758C40.971 20.4201 40.9176 20.2091 40.8197 20.0177C40.7218 19.8263 40.5819 19.6596 40.4105 19.5299C39.9204 19.2355 39.351 19.1003 38.7808 19.1428C38.2349 19.1015 37.6903 19.2373 37.2276 19.5299C37.0684 19.6368 36.9384 19.7817 36.8495 19.9516C36.7605 20.1215 36.7154 20.3109 36.7183 20.5026C36.704 20.6763 36.7366 20.8507 36.8128 21.0075C36.8889 21.1642 37.0058 21.2977 37.1512 21.3938C37.6233 21.6408 38.1463 21.7751 38.679 21.786C39.0475 21.8155 39.4135 21.8717 39.7739 21.954C39.9622 21.9951 40.1373 22.0826 40.2832 22.2086C40.3311 22.2595 40.368 22.3196 40.3916 22.3853C40.4153 22.451 40.4252 22.5209 40.4207 22.5906C40.429 22.7353 40.393 22.8791 40.3175 23.0029C40.242 23.1266 40.1305 23.2244 39.998 23.2832C39.6448 23.4209 39.2663 23.4817 38.8878 23.4614C38.4541 23.4942 38.0193 23.4153 37.6248 23.2323C37.49 23.145 37.3777 23.027 37.2972 22.8881C37.2166 22.7491 37.1701 22.5931 37.1614 22.4327H36.5757C36.562 22.6691 36.612 22.9048 36.7204 23.1153C36.8288 23.3257 36.9916 23.5033 37.1919 23.6295C37.7178 23.9124 38.3122 24.0429 38.9082 24.0064C39.4792 24.0401 40.0476 23.9055 40.5429 23.6193C40.7151 23.5077 40.8562 23.3545 40.9533 23.1737C41.0503 22.993 41.1001 22.7906 41.098 22.5855C41.1132 22.3363 41.0412 22.0896 40.8943 21.8878C40.7237 21.6911 40.4986 21.5494 40.2475 21.4804L40.2679 21.4753ZM44.887 17.8697H44.23V19.3109H43.2115V19.8202H44.23V22.835C44.2207 23.0465 44.2536 23.2577 44.3268 23.4564C44.3962 23.6272 44.5296 23.7643 44.6985 23.8383C44.9448 23.9346 45.2085 23.978 45.4726 23.9656C45.7129 23.9649 45.9528 23.9479 46.1907 23.9147V23.3494C45.9776 23.39 45.7609 23.4088 45.5439 23.4054C45.3623 23.4229 45.1808 23.372 45.0347 23.2628C44.9846 23.2023 44.9471 23.1324 44.9243 23.0572C44.9016 22.982 44.8941 22.903 44.9022 22.8249V19.8049H46.206V19.2956H44.8666L44.887 17.8697ZM58.5048 23.0235L57.0839 19.3058H56.3761L54.9858 23.0489L53.5242 19.3058H52.8163L54.6395 23.8892H55.3473L56.7224 20.2327L58.1127 23.8892H58.8206L60.6947 19.3058H59.9868L58.5048 23.0235ZM67.0758 19.5299C66.6205 19.3018 66.1183 19.1831 65.6091 19.1831C65.0999 19.1831 64.5977 19.3018 64.1424 19.5299C63.7735 19.7344 63.4725 20.0424 63.2766 20.416C63.0896 20.7863 62.9921 21.1954 62.9921 21.6103C62.9921 22.0251 63.0896 22.4342 63.2766 22.8045C63.4737 23.1772 63.7744 23.485 64.1424 23.6906C64.5981 23.9172 65.1002 24.0351 65.6091 24.0351C66.118 24.0351 66.6201 23.9172 67.0758 23.6906C67.4438 23.485 67.7445 23.1772 67.9416 22.8045C68.1283 22.4341 68.2255 22.0251 68.2255 21.6103C68.2255 21.1955 68.1283 20.7864 67.9416 20.416C67.7452 20.0428 67.4444 19.7348 67.0758 19.5299ZM67.0758 22.9624C66.6714 23.3041 66.159 23.4916 65.6295 23.4916C65.1 23.4916 64.5876 23.3041 64.1831 22.9624C63.8524 22.5896 63.6697 22.1086 63.6697 21.6103C63.6697 21.1119 63.8524 20.6309 64.1831 20.2581C64.5876 19.9164 65.1 19.7289 65.6295 19.7289C66.159 19.7289 66.6714 19.9164 67.0758 20.2581C67.4066 20.6309 67.5892 21.1119 67.5892 21.6103C67.5892 22.1086 67.4066 22.5896 67.0758 22.9624ZM72.6065 19.3975C72.3904 19.5059 72.2008 19.6607 72.0513 19.8507C71.9212 20.0195 71.8133 20.2044 71.7305 20.4007V19.3109H71.043V23.8943H71.7V21.567C71.6896 21.2111 71.7759 20.8592 71.9495 20.5484C72.0898 20.3118 72.2972 20.1222 72.5453 20.0035C72.7713 19.896 73.0183 19.8404 73.2685 19.8405C73.4718 19.8412 73.6746 19.8599 73.8745 19.8966V19.204C73.7452 19.1798 73.6139 19.1679 73.4824 19.1683C73.1681 19.1599 72.856 19.2244 72.5708 19.3567L72.6065 19.3975ZM80.7547 19.3517H79.7515L76.9403 21.5721V17.5539H76.2834V23.879H76.9403V22.2443L77.9589 21.4651L79.9959 23.879H80.8617L78.4681 21.0577L80.7547 19.3517ZM86.7488 21.5211C86.3743 21.4124 85.9908 21.3375 85.603 21.2971C85.1412 21.2393 84.7865 21.1816 84.5386 21.1239C84.3533 21.0943 84.1783 21.019 84.0293 20.9049C83.982 20.8571 83.9456 20.7995 83.9227 20.7362C83.8998 20.6729 83.891 20.6053 83.8969 20.5382C83.8899 20.4444 83.9035 20.3501 83.937 20.2621C83.9704 20.174 84.0228 20.0945 84.0905 20.029C84.235 19.9048 84.4114 19.8236 84.5997 19.7947C84.8142 19.7511 85.0327 19.7306 85.2516 19.7336C85.6258 19.7076 86.0005 19.7758 86.3414 19.9322C86.4766 20.0113 86.5924 20.1196 86.6805 20.2491C86.7686 20.3786 86.8267 20.5261 86.8507 20.6808H87.4516C87.4422 20.4587 87.3812 20.2417 87.2733 20.0472C87.1655 19.8528 87.0138 19.6861 86.8303 19.5604C86.3403 19.2657 85.7709 19.1305 85.2007 19.1734C84.6758 19.1436 84.1545 19.2771 83.7085 19.5554C83.5496 19.6626 83.4199 19.8076 83.331 19.9774C83.2421 20.1472 83.1968 20.3364 83.1992 20.5281C83.1844 20.7018 83.2167 20.8764 83.2929 21.0333C83.3691 21.1902 83.4863 21.3235 83.6321 21.4193C84.1042 21.6663 84.6272 21.8005 85.1599 21.8114C85.5285 21.8409 85.8944 21.897 86.2548 21.9795C86.4435 22.0197 86.6187 22.1074 86.7641 22.2341C86.812 22.2849 86.8489 22.3451 86.8726 22.4108C86.8962 22.4765 86.9061 22.5464 86.9016 22.6161C86.9099 22.7608 86.8739 22.9046 86.7984 23.0284C86.7229 23.1521 86.6114 23.2499 86.4789 23.3087C86.1258 23.4466 85.7473 23.5073 85.3687 23.4869C84.9351 23.5196 84.5002 23.4407 84.1057 23.2577C83.97 23.171 83.8567 23.0533 83.7753 22.9143C83.6938 22.7753 83.6465 22.619 83.6372 22.4582H83.0363C83.0226 22.6945 83.0726 22.9302 83.1809 23.1407C83.2893 23.3512 83.4522 23.5288 83.6525 23.655C84.1783 23.9378 84.7727 24.0684 85.3687 24.0318C85.9398 24.0655 86.5082 23.931 87.0035 23.6448C87.1822 23.5328 87.3287 23.3762 87.4287 23.1905C87.5287 23.0048 87.5787 22.7964 87.5739 22.5855C87.5899 22.3362 87.5178 22.0893 87.3701 21.8878C87.1997 21.6909 86.9746 21.5491 86.7234 21.4804L86.7488 21.5211ZM6.9312 1.17077C8.18909 1.17077 9.09559 1.68003 9.98681 2.84117H10.2363C10.2825 2.18752 10.4178 1.54325 10.6387 0.926318C9.52622 0.325065 8.2823 0.00839745 7.01777 0.00454174C3.3103 0.00963442 -0.0152256 1.99578 5.24373e-05 7.17504C5.24373e-05 10.7399 2.44963 13.4441 6.56452 13.4441C7.81868 13.4808 9.06145 13.1968 10.1752 12.6191C10.2361 12.0735 10.3661 11.5379 10.5623 11.0251L10.3331 10.8723C9.49316 11.7459 8.34141 12.2513 7.12981 12.2779C5.09274 12.2779 2.92325 10.7501 2.90797 6.89494C2.8927 2.91756 5.03162 1.17077 6.9312 1.17077ZM24.5111 8.00006V5.45371C24.5111 3.35044 24.5111 1.88883 24.6334 0.254083C24.1481 0.310146 23.6602 0.340744 23.1718 0.345752C22.6866 0.338801 22.2021 0.306503 21.7204 0.248991C21.8324 1.88374 21.8731 3.3046 21.8782 5.40788C21.2009 5.40788 20.4574 5.44353 19.1995 5.44353C17.9416 5.44353 17.0911 5.44353 16.4902 5.40788C16.4902 3.32497 16.4902 1.87865 16.6124 0.248991C16.1306 0.306438 15.6461 0.338736 15.161 0.345752C14.6758 0.33869 14.1914 0.306392 13.7096 0.248991C13.8216 1.89902 13.8623 3.34534 13.8674 5.44862V7.99496C13.8674 10.0982 13.8674 11.5598 13.7452 13.1946C14.227 13.1372 14.7115 13.1049 15.1966 13.0978C15.6818 13.105 16.1662 13.1373 16.648 13.1946C16.536 11.5446 16.4953 10.0982 16.4851 7.99496V6.9255C17.3865 6.88985 18.293 6.84911 19.1791 6.84911C20.0652 6.84911 20.9717 6.90513 21.8731 6.9255V7.99496C21.8731 10.0982 21.8731 11.5598 21.7509 13.1946C22.2327 13.1372 22.7172 13.1049 23.2023 13.0978C23.6875 13.1049 24.1719 13.1372 24.6537 13.1946C24.557 11.5497 24.5162 10.1033 24.5111 8.00006ZM43.3541 8.00006V5.45371C43.3541 3.35044 43.3541 1.88883 43.4763 0.254083C42.9928 0.311643 42.5066 0.343941 42.0198 0.350844C41.5346 0.343838 41.0502 0.31154 40.5684 0.254083C40.6804 1.90411 40.7212 3.35044 40.7262 5.45371V8.00006C40.7262 10.1033 40.7262 11.5649 40.604 13.1997C41.5692 13.0734 42.5468 13.0734 43.5119 13.1997C43.4101 11.5497 43.3693 10.1033 43.3643 8.00006H43.3541ZM54.2371 9.20193C54.2371 4.94445 48.8338 5.63705 48.8287 2.85645C48.8358 2.62365 48.8895 2.39463 48.9866 2.18295C49.0838 1.97127 49.2224 1.78123 49.3943 1.62406C49.5662 1.4669 49.7678 1.3458 49.9874 1.26794C50.2069 1.19008 50.4398 1.15704 50.6723 1.17077C51.1617 1.1507 51.6431 1.30046 52.0347 1.59468C52.4264 1.8889 52.7043 2.30947 52.8214 2.78515H53.0862C53.3154 1.96013 53.4376 1.50688 53.6464 0.926318C52.8172 0.283741 51.7864 -0.0429854 50.7385 0.00454174C50.2068 -0.0182686 49.6763 0.0704151 49.1809 0.264892C48.6856 0.459369 48.2364 0.755336 47.8623 1.13377C47.4882 1.5122 47.1974 1.96473 47.0086 2.46226C46.8199 2.95979 46.7373 3.49131 46.7662 4.02267C46.7662 8.28525 52.0626 7.53153 52.0727 10.3631C52.0727 11.4122 51.3903 12.2779 50.0051 12.2779C49.416 12.304 48.8383 12.1099 48.3845 11.7333C47.9307 11.3567 47.6334 10.8247 47.5504 10.2408H47.2143C47.0937 11.045 46.9236 11.841 46.7051 12.6242C47.5502 13.1786 48.5469 13.4563 49.557 13.4187C52.3783 13.4187 54.2371 11.7177 54.2371 9.20193ZM62.2326 3.30969C62.2326 2.59672 62.2326 1.91939 62.2632 1.65966C63.3176 1.68496 64.3699 1.76656 65.4156 1.90411C65.3594 1.63256 65.3287 1.35636 65.3239 1.0791C65.3263 0.801956 65.3553 0.525683 65.4105 0.254083C63.8827 0.310103 63.1086 0.350844 60.9086 0.350844C58.7085 0.350844 57.9141 0.315196 56.2997 0.254083C56.357 0.525451 56.3877 0.801766 56.3913 1.0791C56.389 1.35624 56.36 1.63252 56.3048 1.90411C57.3691 1.7717 58.8511 1.65966 59.5488 1.65966C59.6018 2.20797 59.6205 2.75905 59.6048 3.30969V8.00006C59.6048 10.1033 59.6048 11.5649 59.4826 13.1997C60.4478 13.0734 61.4253 13.0734 62.3905 13.1997C62.2785 11.5497 62.2377 10.1033 62.2326 8.00006V3.30969ZM71.1499 8.00006V5.45371C71.1499 3.35044 71.1499 1.88883 71.2722 0.254083C70.7904 0.31155 70.3059 0.343847 69.8208 0.350844C69.3356 0.343838 68.8511 0.31154 68.3693 0.254083C68.4814 1.90411 68.5221 3.35044 68.5272 5.45371V8.00006C68.5272 10.1033 68.5272 11.5649 68.405 13.1997C69.3702 13.0737 70.3477 13.0737 71.3129 13.1997C71.2009 11.5497 71.1601 10.1033 71.1499 8.00006ZM76.7519 8.45331C76.7519 7.04772 76.7519 5.48936 76.7519 4.08378C79.4918 7.13939 82.0856 10.1797 84.5335 13.2048C84.7591 13.142 84.992 13.1095 85.2261 13.108C85.4718 13.1119 85.7162 13.1443 85.9544 13.2048C85.9544 8.21395 85.9289 5.71853 86.1886 0.254083C85.9262 0.314054 85.6582 0.346483 85.3891 0.350844C85.1199 0.346336 84.852 0.313909 84.5895 0.254083C84.7169 1.09947 84.7372 6.20234 84.7474 9.18665C82.14 6.19725 79.5936 3.2333 77.032 0.248991C76.7695 0.308816 76.5016 0.341243 76.2324 0.345752C75.9633 0.34128 75.6953 0.308852 75.4329 0.248991C75.4329 1.1504 75.5297 2.28606 75.5347 3.98193C75.5347 7.81163 75.3005 12.6395 75.2139 13.1946C75.4814 13.134 75.7545 13.1015 76.0287 13.0978C76.3096 13.1025 76.5894 13.1349 76.8639 13.1946C76.813 12.5071 76.7519 11.4529 76.7417 8.45331H76.7519ZM34.1465 6.79818C35.8984 6.32966 36.8864 5.16343 36.8813 3.34534C36.8944 2.8737 36.7961 2.40561 36.5944 1.97909C36.3926 1.55258 36.0931 1.17967 35.7201 0.890669C35.0988 0.422142 34.4419 0.254083 32.6645 0.254083C31.4576 0.254083 30.6987 0.345752 30.0571 0.345752C29.572 0.340262 29.0876 0.309665 28.6057 0.254083C28.7177 1.90411 28.7584 3.35044 28.7686 5.45371V8.00006C28.7686 10.1033 28.7686 11.5649 28.6464 13.1997C29.6115 13.0723 30.5892 13.0723 31.5543 13.1997C31.4423 11.5497 31.4015 10.1033 31.3914 8.00006V7.23106H31.5492L34.7423 13.1997C35.2516 13.164 35.822 13.1029 36.3567 13.1029C36.8915 13.1029 37.4211 13.1589 37.9507 13.1997C36.647 11.0811 35.2924 8.9422 34.1465 6.79818ZM31.7682 6.44169C31.6369 6.43799 31.5059 6.42609 31.3761 6.40605C31.3761 4.7 31.3761 3.00923 31.4117 1.31336C33.3419 1.31336 34.1618 1.55781 34.1669 3.77313C34.1771 5.54538 33.3317 6.46207 31.7733 6.46207L31.7682 6.44169ZM95.0041 0.177693C94.783 0.228013 94.5582 0.260372 94.3318 0.274454C94.1055 0.260306 93.8807 0.227947 93.6596 0.177693C92.1318 4.45555 89.5142 11.1371 88.6535 13.2201C88.9469 13.1718 89.2427 13.1395 89.5396 13.1233C89.8199 13.1367 90.0989 13.169 90.3748 13.2201C90.7059 11.9214 91.2304 10.3529 91.704 9.07461C92.3253 9.07461 94.7953 9.07461 95.5541 9.07461C96.0022 10.3529 96.537 11.9418 96.9138 13.2201C97.4231 13.1844 97.9324 13.1233 98.4416 13.1233C98.9509 13.1233 99.4347 13.1793 100 13.2201C98.6199 10.139 96.5064 4.43518 95.0041 0.177693ZM92.2387 7.65375C92.2387 7.65375 93.2929 4.73055 93.6698 3.79859C94.1791 5.06158 95.055 7.64866 95.055 7.64866L92.2387 7.65375Z" fill="black"/>
</svg>
