<svg width="23" height="16" viewBox="0 0 23 16" fill="none" xmlns="http://www.w3.org/2000/svg">
<path d="M3.61673 0H10.8272L10.988 9.09534L15.328 0H22.5959L22.1137 2.21362H21.5626C21.2105 2.21362 20.9617 2.23656 20.8163 2.28244C20.6785 2.32832 20.5522 2.41243 20.4374 2.53477C20.3226 2.64946 20.2231 2.80621 20.1389 3.00502C20.1235 3.0509 20.0814 3.23441 20.0126 3.55556L17.9803 12.5018C17.9038 12.8382 17.8655 13.0676 17.8655 13.19C17.8655 13.3658 17.9305 13.5111 18.0607 13.6258C18.1985 13.7329 18.4051 13.7864 18.6807 13.7864H19.4959L18.9792 16H11.7687L12.2624 13.7864H12.6987C13.2345 13.7864 13.6058 13.6984 13.8125 13.5226C14.0268 13.3391 14.1952 12.972 14.3176 12.4215L16.5681 2.32832L9.88572 16H7.97976L7.62383 1.98423L5.23564 12.5018C5.1591 12.8076 5.12083 13.0217 5.12083 13.1441C5.12083 13.3505 5.18589 13.5111 5.31601 13.6258C5.44614 13.7405 5.62985 13.7978 5.86713 13.7978L6.10825 13.7864H6.78567L6.26899 16H0L0.505194 13.7864H0.918534C1.37015 13.7864 1.68398 13.7481 1.86003 13.6717C2.04374 13.5952 2.18917 13.4805 2.29633 13.3276C2.41115 13.167 2.51831 12.865 2.61782 12.4215L4.6386 3.48674C4.70749 3.17324 4.74193 2.96679 4.74193 2.86738C4.74193 2.69152 4.68835 2.53859 4.58119 2.4086C4.47403 2.27861 4.26353 2.21362 3.9497 2.21362H3.11153L3.61673 0Z" fill="#757A7E"/>
</svg>
