<svg width="165" height="52" viewBox="0 0 165 52" fill="none" xmlns="http://www.w3.org/2000/svg">
<path d="M18.75 0.5H33.7024L34.0357 19.3642L43.0357 0.5H58.1071L57.1071 5.09115H55.9643C55.2341 5.09115 54.7183 5.13873 54.4167 5.23388C54.131 5.32904 53.869 5.50348 53.631 5.75723C53.3929 5.99511 53.1865 6.32022 53.0119 6.73255C52.9802 6.8277 52.8929 7.20832 52.75 7.87439L48.5357 26.4293C48.377 27.1271 48.2976 27.6029 48.2976 27.8566C48.2976 28.2214 48.4325 28.5227 48.7024 28.7606C48.9881 28.9826 49.4167 29.0936 49.9881 29.0936H51.6786L50.6071 33.6848H35.6548L36.6786 29.0936H37.5833C38.6944 29.0936 39.4643 28.9112 39.8929 28.5465C40.3373 28.1659 40.6865 27.4046 40.9405 26.2628L45.6071 5.32904L31.75 33.6848H27.7976L27.0595 4.61539L22.1071 26.4293C21.9484 27.0637 21.869 27.5077 21.869 27.7615C21.869 28.1896 22.004 28.5227 22.2738 28.7606C22.5437 28.9984 22.9246 29.1174 23.4167 29.1174L23.9167 29.0936H25.3214L24.25 33.6848H11.25L12.2976 29.0936H13.1548C14.0913 29.0936 14.7421 29.0143 15.1071 28.8557C15.4881 28.6971 15.7897 28.4592 16.0119 28.1421C16.25 27.809 16.4722 27.1826 16.6786 26.2628L20.869 7.73166C21.0119 7.08144 21.0833 6.65325 21.0833 6.44709C21.0833 6.08233 20.9722 5.76516 20.75 5.49555C20.5278 5.22595 20.0913 5.09115 19.4405 5.09115H17.7024L18.75 0.5Z" fill="#757A7E"/>
<path d="M77.5119 12.0136L79.0119 9.94398H84.4881L80.8452 25.8822C80.6071 26.9764 80.4881 27.6742 80.4881 27.9756C80.4881 28.261 80.5913 28.4989 80.7976 28.6892C81.004 28.8636 81.2659 28.9509 81.5833 28.9509C81.9167 28.9509 82.3532 28.8161 82.8929 28.5465C83.4484 28.2769 84.0357 27.8566 84.6548 27.2857L87.3929 30.4258C85.9484 31.7896 84.5357 32.7729 83.1548 33.3755C81.7897 33.9623 80.3929 34.2557 78.9643 34.2557C77.9643 34.2557 77.0516 34.0733 76.2262 33.7085C75.4167 33.3596 74.7262 32.868 74.1548 32.2337C73.5992 31.5993 73.2103 30.8777 72.9881 30.0689C72.2897 30.9253 71.4484 31.6865 70.4643 32.3526C69.496 33.0187 68.5516 33.5024 67.631 33.8037C66.7262 34.105 65.7183 34.2557 64.6071 34.2557C62.8929 34.2557 61.3849 33.8592 60.0833 33.0663C58.7976 32.2733 57.7817 31.1632 57.0357 29.7359C56.3056 28.2927 55.9405 26.572 55.9405 24.5738C55.9405 20.4505 57.4087 16.8902 60.3452 13.8928C63.2817 10.8797 66.6468 9.37306 70.4405 9.37306C71.8214 9.37306 73.0437 9.57129 74.1071 9.96776C75.1706 10.3484 76.3056 11.0303 77.5119 12.0136ZM75.5595 15.9624C74.6865 15.2964 73.9484 14.8444 73.3452 14.6065C72.7421 14.3686 72.123 14.2497 71.4881 14.2497C69.4087 14.2497 67.6706 15.3677 66.2738 17.6038C64.8929 19.8399 64.2024 22.2584 64.2024 24.8593C64.2024 25.9535 64.4802 26.8496 65.0357 27.5474C65.5913 28.2293 66.2579 28.5703 67.0357 28.5703C67.9087 28.5703 68.7659 28.261 69.6071 27.6425C70.7659 26.7703 71.877 25.335 72.9405 23.3368C74.0198 21.3386 74.8929 18.8805 75.5595 15.9624Z" fill="#757A7E"/>
<path d="M94.0595 0.5H110.179L109.131 5.09115H107.845C106.956 5.09115 106.337 5.17045 105.988 5.32904C105.639 5.48763 105.345 5.73344 105.107 6.06648C104.885 6.39951 104.671 7.01008 104.464 7.89818L102.583 16.1765L113.274 7.63651C114.21 6.89114 114.679 6.32022 114.679 5.92375C114.679 5.62243 114.528 5.4004 114.226 5.25767C114.004 5.14666 113.163 5.09115 111.702 5.09115L112.798 0.5H128.464L127.369 5.09115C126.337 5.09115 125.504 5.21802 124.869 5.47177C124.234 5.70965 123.345 6.25678 122.202 7.11316L112.798 14.2497L119.536 26.3104C120.202 27.5156 120.798 28.2769 121.321 28.594C121.845 28.9112 122.766 29.0777 124.083 29.0936L123.083 33.6848H107.036L108.06 29.0936H109.274C110.179 29.0936 110.774 29.0064 111.06 28.8319C111.345 28.6416 111.488 28.3799 111.488 28.0469C111.488 27.7297 111.29 27.2223 110.893 26.5245L106.655 18.936L100.988 23.1703L100.274 26.3104C100.115 27.0082 100.036 27.5315 100.036 27.8804C100.036 28.2927 100.194 28.602 100.512 28.8081C100.829 28.9984 101.52 29.0936 102.583 29.0936H103.679L102.583 33.6848H86.5119L87.5357 29.0936H88.8214C89.7421 29.0936 90.377 29.0222 90.7262 28.8795C91.0913 28.7209 91.377 28.491 91.5833 28.1896C91.8056 27.8725 92.0278 27.246 92.25 26.3104L96.4881 7.63651C96.6151 7.04973 96.6786 6.6374 96.6786 6.39951C96.6786 5.95546 96.5198 5.6145 96.2024 5.37661C95.9484 5.18631 95.3532 5.09115 94.4167 5.09115H92.9881L94.0595 0.5Z" fill="#757A7E"/>
<path d="M142.202 9.37306C145.488 9.37306 148.234 10.2929 150.44 12.1325C152.647 13.9563 153.75 16.4223 153.75 19.5307C153.75 22.1157 153.075 24.5738 151.726 26.9051C150.377 29.2363 148.583 31.0442 146.345 32.3288C144.123 33.6134 141.615 34.2557 138.821 34.2557C135.25 34.2557 132.417 33.2883 130.321 31.3535C128.226 29.4029 127.179 26.8734 127.179 23.765C127.179 21.18 127.837 18.7774 129.155 16.5571C130.472 14.321 132.274 12.5686 134.56 11.2999C136.845 10.0153 139.393 9.37306 142.202 9.37306ZM141.964 14.2259C140.917 14.2259 139.909 14.6065 138.94 15.3677C137.988 16.1289 137.147 17.4135 136.417 19.2214C135.687 21.0135 135.321 22.8531 135.321 24.7403C135.321 26.2628 135.647 27.4126 136.298 28.1896C136.964 28.9509 137.821 29.3315 138.869 29.3315C139.964 29.3315 140.988 28.9667 141.94 28.2372C142.909 27.4919 143.758 26.2311 144.488 24.4549C145.218 22.6787 145.583 20.8073 145.583 18.8408C145.583 17.3025 145.25 16.1527 144.583 15.3915C143.933 14.6144 143.06 14.2259 141.964 14.2259Z" fill="#757A7E"/>
<path d="M4.28002 49.2585L4.45886 48.2562C3.38587 48.292 3.40971 47.779 3.49317 47.3136L3.81506 45.5H4.3754C5.41262 45.5 5.57953 45.8222 5.57953 46.4426C5.57953 46.9437 5.49608 47.421 5.49608 47.9341C5.49608 48.7455 5.80605 49.4614 7.29631 49.4614C8.03548 49.4614 8.54813 49.2466 9.02501 48.7097C9.33498 48.3517 9.57343 47.8983 9.70457 47.4091L8.91771 47.242C8.78657 47.7193 8.51236 47.9937 8.20239 47.9937C7.9401 47.9937 7.8328 47.8148 7.76127 47.5523C7.59436 46.9557 7.71358 46.3591 7.39169 45.7506C7.20093 45.3926 6.8075 45.0227 6.22332 44.9631L6.23524 44.9273C7.09363 44.7602 7.32015 44.0205 7.49898 43.4835C7.66589 42.9824 7.77319 42.696 7.96395 42.5767C8.03548 42.529 8.10701 42.517 8.19046 42.517C8.29776 42.517 8.35737 42.6006 8.35737 42.708C8.35737 42.7915 8.34545 42.8631 8.34545 42.9466C8.34545 43.1375 8.50044 43.4358 9.00117 43.4358C9.7761 43.4358 10.253 42.8511 10.253 42.2068C10.253 41.6818 10.0145 40.942 8.76272 40.942C7.39169 40.942 6.83135 41.6937 6.37831 43.0062C6.22332 43.4477 6.09218 43.9131 5.77028 44.1517C5.47223 44.3784 5.09073 44.3784 4.78075 44.3784H4.00582L4.24426 43.042C4.31579 42.6244 4.39925 42.1352 5.51992 42.1352L5.69875 41.133H1.4068L1.22797 42.1352C2.31288 42.0517 2.20558 42.8153 2.16982 43.0182L1.41873 47.3136C1.34719 47.7074 1.2399 48.2682 0.166909 48.2562L0 49.2585H4.28002Z" fill="#757A7E"/>
<path d="M13.2372 49.354C15.5859 49.354 17.1 47.5403 17.1 45.6074C17.1 43.9011 15.8362 43.1136 14.1552 43.1136C11.6158 43.1136 10.3163 45.1063 10.3163 46.7886C10.3163 47.6835 10.6024 49.354 13.2372 49.354ZM13.273 48.2801C12.8557 48.2801 12.3669 48.0415 12.3669 47.242C12.3669 46.5381 12.6769 44.1875 14.1195 44.1875C15.0375 44.1875 15.0494 44.9869 15.0494 45.2136C15.0494 46.8125 14.3817 48.2801 13.273 48.2801Z" fill="#757A7E"/>
<path d="M22.9133 47.2301C22.4245 47.6597 21.5542 48.2324 20.6719 48.2324C19.6347 48.2324 19.5036 47.3972 19.5036 46.9557C19.5036 45.4403 20.4573 44.0563 21.3634 44.0563C21.7688 44.0563 21.9238 44.271 21.9238 44.4739C21.9238 44.5335 21.9118 44.6051 21.888 44.6648C21.8522 44.7841 21.8165 44.8915 21.8165 45.0108C21.8165 45.333 22.1026 45.6909 22.7225 45.6909C23.4259 45.6909 23.8671 45.1301 23.8671 44.6528C23.8671 43.9369 23.0206 43.1136 21.5065 43.1136C19.5393 43.1136 17.453 44.7125 17.453 46.8364C17.453 48.2443 18.4902 49.354 20.2308 49.354C21.3038 49.354 22.496 48.9006 23.4617 48.0057L22.9133 47.2301Z" fill="#757A7E"/>
<path d="M25.5429 43.2091L25.376 44.1875H25.5787C26.0556 44.1875 26.3537 44.4619 26.3537 44.8557C26.3537 45.6312 25.8887 47.1824 25.3999 47.5165C24.8872 47.8625 23.8739 47.5284 23.8739 48.5665C23.8739 48.996 24.2077 49.354 24.7442 49.354C26.4013 49.354 26.9974 46.9318 27.3313 44.7244L28.1897 49.2585H29.1077L31.8974 44.7244L31.4086 47.5642C31.3848 47.7313 31.349 47.8864 31.349 48.0534C31.349 48.2562 31.3252 49.354 32.8273 49.354C33.3758 49.354 34.0672 49.1631 34.8541 48.4949L34.3653 47.8148C34.0792 48.0534 33.793 48.0773 33.6857 48.0773C33.2804 48.0773 33.2685 47.7551 33.2685 47.6477C33.2685 47.6 33.2685 47.5523 33.2804 47.5045L34.0195 43.2091H31.6947L29.3819 47.0392H29.3461L28.5592 43.2091H25.5429Z" fill="#757A7E"/>
<path d="M40.6941 47.1585C40.2888 47.5403 39.3708 48.2801 38.3693 48.2801C37.2606 48.2801 37.189 47.3494 37.189 47.0511C37.189 46.908 37.201 46.7648 37.2367 46.6216H37.5229C40.3484 46.6216 41.5406 45.6193 41.5406 44.5813C41.5406 43.9369 41.0756 43.1136 39.4066 43.1136C37.356 43.1136 35.1385 44.6051 35.1385 46.8244C35.1385 48.5665 36.5691 49.354 37.9759 49.354C39.2158 49.354 40.408 48.7335 41.2426 47.8864L40.6941 47.1585ZM37.4036 45.7983C37.6302 44.808 38.3693 44.0443 39.0966 44.0443C39.5258 44.0443 39.7761 44.2949 39.7761 44.6051C39.7761 45.1063 39.0847 45.858 37.4036 45.7983Z" fill="#757A7E"/>
<path d="M45.7321 49.2585H47.5919L48.3787 44.7125C48.7245 44.5097 49.0583 44.4261 49.3325 44.4261C49.9048 44.4261 50.0836 44.7364 50.0836 45.0585C50.0836 45.1301 50.0598 45.2136 50.0121 45.4523L49.5471 47.5642C49.5113 47.7313 49.4756 47.8864 49.4756 48.0534C49.4756 49.008 50.1551 49.354 50.9658 49.354C51.4785 49.354 52.1819 49.175 52.9807 48.483L52.5038 47.8028C52.2773 47.9937 52.015 48.0773 51.8123 48.0773C51.55 48.0773 51.395 47.9341 51.395 47.6477C51.395 47.5523 51.4189 47.4568 51.4427 47.3614L51.9673 45.0466C52.015 44.8318 52.0627 44.629 52.0627 44.4142C52.0627 43.5074 51.395 43.1136 50.5843 43.1136C49.6067 43.1136 48.7364 43.4239 48.2238 43.6744C47.7111 43.1614 47.0435 43.1136 46.7573 43.1136C46.4355 43.1136 45.6486 43.1972 44.9929 43.6744L45.0763 43.2091H44.4445C44.0391 43.3881 43.3953 43.6028 42.2747 43.5909L42.0958 44.5693C42.9542 44.5574 42.9184 44.9153 42.8708 45.1778L42.1674 49.2585H44.0272L44.8141 44.6886C45.1359 44.5097 45.5055 44.4261 45.8036 44.4261C46.1851 44.4261 46.5308 44.6409 46.4593 45.0585L45.7321 49.2585Z" fill="#757A7E"/>
<path d="M56.1753 49.354C58.524 49.354 60.0381 47.5403 60.0381 45.6074C60.0381 43.9011 58.7743 43.1136 57.0933 43.1136C54.5539 43.1136 53.2544 45.1063 53.2544 46.7886C53.2544 47.6835 53.5405 49.354 56.1753 49.354ZM56.2111 48.2801C55.7938 48.2801 55.305 48.0415 55.305 47.242C55.305 46.5381 55.615 44.1875 57.0576 44.1875C57.9756 44.1875 57.9875 44.9869 57.9875 45.2136C57.9875 46.8125 57.3198 48.2801 56.2111 48.2801Z" fill="#757A7E"/>
<path d="M61.7979 43.2091L61.6191 44.1875H61.8098C62.1913 44.1875 62.5847 44.4023 62.5847 44.8557C62.5847 45.5119 62.2032 47.1347 61.631 47.5165C61.1183 47.8625 60.1407 47.5284 60.1407 48.5665C60.1407 48.996 60.4865 49.354 61.011 49.354C62.7993 49.354 63.3597 46.3472 63.5385 45.4045L63.7531 44.283H65.2672L64.6473 47.5642C64.6115 47.7313 64.5876 47.8864 64.5876 48.0534C64.5876 48.9244 65.1718 49.354 66.066 49.354C66.5667 49.354 67.3178 49.1989 68.1762 48.4233L67.7112 47.7551C67.4609 47.9699 67.1747 48.0773 66.9244 48.0773C66.519 48.0773 66.5071 47.7432 66.5071 47.6477C66.5071 47.6 66.5071 47.5523 66.519 47.5045L67.3297 43.2091H61.7979Z" fill="#757A7E"/>
<path d="M71.497 49.354C73.8457 49.354 75.3598 47.5403 75.3598 45.6074C75.3598 43.9011 74.0961 43.1136 72.415 43.1136C69.8756 43.1136 68.5761 45.1063 68.5761 46.7886C68.5761 47.6835 68.8623 49.354 71.497 49.354ZM71.5328 48.2801C71.1155 48.2801 70.6267 48.0415 70.6267 47.242C70.6267 46.5381 70.9367 44.1875 72.3793 44.1875C73.2973 44.1875 73.3092 44.9869 73.3092 45.2136C73.3092 46.8125 72.6416 48.2801 71.5328 48.2801Z" fill="#757A7E"/>
<path d="M76.905 44.6528C77.2865 44.4261 77.9184 44.1278 78.6099 44.1278C79.4206 44.1278 79.5994 44.5335 79.5994 44.808C79.5994 45.5119 78.7768 45.6909 77.9184 45.8937C77.06 46.0966 75.832 46.4426 75.832 47.6597C75.832 48.5187 76.3924 49.354 78.431 49.354C79.2298 49.354 80.1955 49.2585 81.352 48.6739L81.0777 47.767C80.5055 47.9938 79.6232 48.2801 78.9318 48.2801C78.7529 48.2801 78.5741 48.2562 78.4072 48.1847C78.1211 48.0653 77.978 47.8506 77.978 47.5403C77.978 46.8244 78.7768 46.6455 79.361 46.4665C80.6366 46.0847 81.805 45.8341 81.805 44.6886C81.805 44.2352 81.6262 43.1136 79.4206 43.1136C78.4191 43.1136 77.4415 43.3045 76.4877 43.9011L76.905 44.6528Z" fill="#757A7E"/>
<path d="M85.7846 43.2091H85.0335C84.6163 43.3642 83.8652 43.6028 82.7445 43.5909L82.5657 44.5693C83.1737 44.5574 83.6267 44.6886 83.5314 45.1778L83.0545 47.5642C83.0187 47.7313 82.9949 47.8864 82.9949 48.0534C82.9949 48.2562 82.9591 49.354 84.4732 49.354C84.9739 49.354 85.725 49.1989 86.5834 48.4233L86.1185 47.7551C85.8681 47.9699 85.582 48.0773 85.3316 48.0773C84.9262 48.0773 84.9143 47.7432 84.9143 47.6477C84.9143 47.6 84.9143 47.5523 84.9262 47.5045L85.7846 43.2091ZM84.8189 42.5409C85.57 42.5409 86.2019 41.9801 86.2019 41.2284C86.2019 40.7034 85.8562 40.25 85.2243 40.25C84.4732 40.25 83.8413 40.8108 83.8413 41.5625C83.8413 42.0875 84.1871 42.5409 84.8189 42.5409Z" fill="#757A7E"/>
<path d="M89.801 43.2091H89.1691C88.728 43.3881 88.0365 43.6028 86.9993 43.5909L86.8205 44.5693C87.6788 44.5574 87.6431 44.9153 87.5954 45.1778L87.4165 46.2636C87.345 46.6932 87.3331 47.5642 88.728 47.5642C89.3479 47.5642 90.1109 47.433 90.862 46.9795L90.7667 47.5642C90.7428 47.7313 90.707 47.8864 90.707 48.0534C90.707 48.2562 90.6832 49.354 92.1854 49.354C92.6861 49.354 93.4372 49.1989 94.2956 48.4233L93.8068 47.7312C93.5445 48.0057 93.2465 48.0773 93.0438 48.0773C92.6384 48.0773 92.6265 47.7551 92.6265 47.6477C92.6265 47.6 92.6265 47.5523 92.6384 47.5045L93.3776 43.2091H91.5178L91.0528 45.9057C90.7309 46.1205 90.3017 46.2517 89.956 46.2517C89.3122 46.2517 89.336 45.8699 89.4195 45.4045L89.801 43.2091Z" fill="#757A7E"/>
<path d="M94.9435 49.2585H96.8033L97.2683 46.5619H99.2593L99.0804 47.5642C99.0566 47.7313 99.0208 47.8864 99.0208 48.0534C99.0208 48.2562 98.997 49.354 100.499 49.354C101.048 49.354 101.739 49.1631 102.526 48.4949L102.037 47.8148C101.751 48.0534 101.465 48.0773 101.358 48.0773C100.952 48.0773 100.94 47.7551 100.94 47.6477C100.94 47.6 100.94 47.5523 100.952 47.5045L101.691 43.2091H99.8315L99.4381 45.4881H97.459L97.8405 43.2091H97.2206C96.8153 43.3881 96.1715 43.6028 95.0508 43.5909L94.8719 44.5693C95.7303 44.5574 95.6946 44.9153 95.6469 45.1778L94.9435 49.2585Z" fill="#757A7E"/>
<path d="M109.78 43.2091H107.92L107.157 47.6239C106.823 47.8744 106.465 48.0534 106.06 48.0534C105.321 48.0534 105.321 47.6239 105.321 47.4807C105.321 47.3614 105.345 47.254 105.368 47.1347L106.108 43.2091H105.476C105.07 43.3761 104.355 43.6028 103.282 43.5909L103.103 44.5693C103.962 44.5574 103.926 44.9153 103.878 45.1778L103.461 47.4091C103.413 47.6716 103.378 47.9222 103.378 48.1847C103.378 49.2824 104.522 49.354 105.142 49.354C106.096 49.354 106.775 48.9244 107.181 48.6261C107.383 49.1392 107.92 49.354 108.587 49.354C109.088 49.354 109.839 49.1989 110.698 48.4233L110.233 47.7551C109.982 47.9699 109.696 48.0773 109.446 48.0773C109.04 48.0773 109.029 47.7432 109.029 47.6477C109.029 47.6 109.029 47.5523 109.04 47.5045L109.78 43.2091Z" fill="#757A7E"/>
<path d="M117.883 43.2091H116.023L115.26 47.6239C114.926 47.8744 114.569 48.0534 114.163 48.0534C113.424 48.0534 113.424 47.6239 113.424 47.4807C113.424 47.3614 113.448 47.254 113.472 47.1347L114.211 43.2091H113.579C113.174 43.3761 112.458 43.6028 111.385 43.5909L111.207 44.5693C112.065 44.5574 112.029 44.9153 111.982 45.1778L111.564 47.4091C111.517 47.6716 111.481 47.9222 111.481 48.1847C111.481 49.2824 112.625 49.354 113.245 49.354C114.199 49.354 114.879 48.9244 115.284 48.6261C115.487 49.1392 116.023 49.354 116.691 49.354C117.191 49.354 117.943 49.1989 118.801 48.4233L118.336 47.7551C118.086 47.9699 117.799 48.0773 117.549 48.0773C117.144 48.0773 117.132 47.7432 117.132 47.6477C117.132 47.6 117.132 47.5523 117.144 47.5045L117.883 43.2091ZM115.224 42.5409C116.727 42.5409 117.716 41.8489 117.716 41.1687C117.716 40.8705 117.656 40.4886 117.108 40.4886C116.834 40.4886 116.321 40.5244 116.226 41.2284C116.178 41.6102 115.82 41.8131 115.32 41.8131C114.747 41.8131 114.592 41.5506 114.592 41.3835C114.592 41.2761 114.628 41.1688 114.628 41.0614C114.628 40.8466 114.581 40.4886 113.937 40.4886C113.317 40.4886 113.162 40.9301 113.162 41.1687C113.162 41.7057 113.627 42.5409 115.224 42.5409Z" fill="#757A7E"/>
<path d="M122.677 41.133L122.51 42.1114C123.487 42.0994 123.487 42.5528 123.404 43.054L122.653 47.3614C122.557 47.9341 122.391 48.292 121.437 48.2801L121.27 49.2585H126.897C128.697 49.2585 129.043 49.8193 129.222 50.5352C129.305 50.8813 129.365 51.3705 129.389 51.7523H130.474L130.605 48.1369H130.307C130.068 48.1369 129.508 48.1369 129.651 47.3256L130.402 43.0301C130.462 42.6602 130.545 42.0994 131.606 42.1114L131.773 41.133H127.6L127.434 42.1114C128.507 42.1114 128.387 42.6722 128.328 43.0301L127.529 47.6C127.445 48.0773 127.171 48.1369 126.909 48.1369H125.109C125.001 48.1369 124.596 48.125 124.68 47.6358L125.478 43.054C125.562 42.5648 125.669 42.1114 126.682 42.1114L126.849 41.133H122.677Z" fill="#757A7E"/>
<path d="M136.781 47.1585C136.376 47.5403 135.458 48.2801 134.456 48.2801C133.347 48.2801 133.276 47.3494 133.276 47.0511C133.276 46.908 133.288 46.7648 133.324 46.6216H133.61C136.435 46.6216 137.627 45.6193 137.627 44.5813C137.627 43.9369 137.162 43.1136 135.493 43.1136C133.443 43.1136 131.225 44.6051 131.225 46.8244C131.225 48.5665 132.656 49.354 134.063 49.354C135.303 49.354 136.495 48.7335 137.329 47.8864L136.781 47.1585ZM133.49 45.7983C133.717 44.808 134.456 44.0443 135.183 44.0443C135.613 44.0443 135.863 44.2949 135.863 44.6051C135.863 45.1063 135.171 45.858 133.49 45.7983Z" fill="#757A7E"/>
<path d="M138.254 49.2585H140.114L140.579 46.5619H142.57L142.391 47.5642C142.367 47.7313 142.331 47.8864 142.331 48.0534C142.331 48.2562 142.308 49.354 143.81 49.354C144.358 49.354 145.05 49.1631 145.837 48.4949L145.348 47.8148C145.062 48.0534 144.776 48.0773 144.668 48.0773C144.263 48.0773 144.251 47.7551 144.251 47.6477C144.251 47.6 144.251 47.5523 144.263 47.5045L145.002 43.2091H143.142L142.749 45.4881H140.77L141.151 43.2091H140.531C140.126 43.3881 139.482 43.6028 138.361 43.5909L138.183 44.5693C139.041 44.5574 139.005 44.9153 138.958 45.1778L138.254 49.2585Z" fill="#757A7E"/>
<path d="M150.05 49.2585H151.91L152.697 44.7125C153.043 44.5097 153.376 44.4261 153.651 44.4261C154.223 44.4261 154.402 44.7364 154.402 45.0585C154.402 45.1301 154.378 45.2136 154.33 45.4523L153.865 47.5642C153.829 47.7313 153.794 47.8864 153.794 48.0534C153.794 49.008 154.473 49.354 155.284 49.354C155.797 49.354 156.5 49.175 157.299 48.483L156.822 47.8028C156.595 47.9937 156.333 48.0773 156.13 48.0773C155.868 48.0773 155.713 47.9341 155.713 47.6477C155.713 47.5523 155.737 47.4568 155.761 47.3614L156.285 45.0466C156.333 44.8318 156.381 44.629 156.381 44.4142C156.381 43.5074 155.713 43.1136 154.902 43.1136C153.925 43.1136 153.055 43.4239 152.542 43.6744C152.029 43.1614 151.362 43.1136 151.076 43.1136C150.754 43.1136 149.967 43.1972 149.311 43.6744L149.394 43.2091H148.763C148.357 43.3881 147.713 43.6028 146.593 43.5909L146.414 44.5693C147.272 44.5574 147.237 44.9153 147.189 45.1778L146.485 49.2585H148.345L149.132 44.6886C149.454 44.5097 149.824 44.4261 150.122 44.4261C150.503 44.4261 150.849 44.6409 150.777 45.0585L150.05 49.2585Z" fill="#757A7E"/>
<path d="M157.93 44.5693C158.789 44.5574 158.753 44.9153 158.705 45.1778L157.871 49.9386C157.728 50.7739 157.286 50.8216 156.941 50.8216H156.774L156.583 51.8H160.505L160.672 50.8216H160.505C159.719 50.8216 159.599 50.6784 159.695 50.1415L159.909 48.9364C160.648 49.3182 161.185 49.354 161.423 49.354C163.426 49.354 165 47.5165 165 45.6432C165 43.9369 163.82 43.1136 162.616 43.1136C161.984 43.1136 161.328 43.3523 160.756 43.9847L160.887 43.2091H160.255C159.874 43.3881 159.242 43.6028 158.109 43.5909L157.93 44.5693ZM160.088 47.8983L160.267 46.8841C160.458 45.8102 160.815 44.2352 162.139 44.2352C162.806 44.2352 162.949 44.8438 162.949 45.4165C162.949 46.8006 162.246 48.292 161.173 48.292C160.792 48.292 160.386 48.125 160.088 47.8983Z" fill="#757A7E"/>
</svg>
