<svg width="287" height="73" viewBox="0 0 287 73" fill="none" xmlns="http://www.w3.org/2000/svg">
<path d="M1.49012e-07 -2.86102e-06H16.3L37.8 43.5L59.5 -2.86102e-06H75.8V72H58.8V37.3L44.6 62.8H31.1L17 37.4V72H1.49012e-07V-2.86102e-06ZM94.5008 55.2C94.5008 53.3333 94.8341 51.6 95.5008 50C96.2341 48.3333 97.2008 46.9 98.4008 45.7C99.6674 44.4333 101.101 43.4667 102.701 42.8C104.367 42.0667 106.134 41.7 108.001 41.7H130.701V36.4C130.701 35.6667 130.434 35.0667 129.901 34.6C129.434 34.0667 128.834 33.8 128.101 33.8H114.901C114.034 33.8 113.267 34.0667 112.601 34.6C111.934 35.1333 111.534 35.8667 111.401 36.8L96.0008 34.5C96.0674 32.5 96.5008 30.6667 97.3008 29C98.1008 27.3333 99.1341 25.9 100.401 24.7C101.667 23.4333 103.134 22.4667 104.801 21.8C106.534 21.0667 108.367 20.7 110.301 20.7H133.401C135.267 20.7 137.001 21.0667 138.601 21.8C140.267 22.4667 141.701 23.4 142.901 24.6C144.167 25.8 145.134 27.2333 145.801 28.9C146.534 30.5 146.901 32.2333 146.901 34.1V72H131.401V69.2C129.201 69.6667 126.934 70.1333 124.601 70.6C122.267 71 120.001 71.3667 117.801 71.7C115.667 72.0333 113.734 72.3 112.001 72.5C110.267 72.7 108.934 72.8 108.001 72.8C106.134 72.8 104.367 72.4667 102.701 71.8C101.101 71.0667 99.6674 70.1 98.4008 68.9C97.2008 67.6333 96.2341 66.2 95.5008 64.6C94.8341 62.9333 94.5008 61.1667 94.5008 59.3V55.2ZM110.701 58C110.701 58.7333 110.934 59.3667 111.401 59.9C111.934 60.3667 112.567 60.6 113.301 60.6C113.834 60.6 115.034 60.5 116.901 60.3C118.767 60.1 120.734 59.8667 122.801 59.6C125.201 59.3333 127.834 59 130.701 58.6V51.1H113.301C112.567 51.1 111.934 51.3667 111.401 51.9C110.934 52.3667 110.701 52.9667 110.701 53.7V58ZM183.311 -2.86102e-06V21.2L204.311 -2.86102e-06H224.711L198.111 26.8L227.111 72H207.411L186.311 39L183.311 42.1V72H166.211V-2.86102e-06H183.311ZM249.67 55C249.67 56.1333 250.004 57.0667 250.67 57.8C251.404 58.5333 252.337 58.9 253.47 58.9H266.17C267.237 58.9 268.137 58.5333 268.87 57.8C269.604 57.0667 269.97 56.1333 269.97 55V37.6C269.97 36.5333 269.604 35.6333 268.87 34.9C268.137 34.1667 267.237 33.8 266.17 33.8H253.47C252.337 33.8 251.404 34.1667 250.67 34.9C250.004 35.6333 249.67 36.5333 249.67 37.6V55ZM233.27 35.3C233.27 33.3 233.637 31.4333 234.37 29.7C235.17 27.9 236.237 26.3333 237.57 25C238.904 23.6667 240.437 22.6333 242.17 21.9C243.97 21.1 245.904 20.7 247.97 20.7H271.47C273.47 20.7 275.37 21.1 277.17 21.9C278.97 22.6333 280.537 23.6667 281.87 25C283.204 26.3333 284.237 27.9 284.97 29.7C285.77 31.4333 286.17 33.3 286.17 35.3V57.3C286.17 59.3667 285.77 61.3 284.97 63.1C284.237 64.8333 283.204 66.3667 281.87 67.7C280.537 69.0333 278.97 70.1 277.17 70.9C275.37 71.6333 273.47 72 271.47 72H247.97C245.904 72 243.97 71.6333 242.17 70.9C240.437 70.1 238.904 69.0333 237.57 67.7C236.237 66.3667 235.17 64.8333 234.37 63.1C233.637 61.3 233.27 59.3667 233.27 57.3V35.3Z" fill="#42414D"/>
</svg>
