<?xml version="1.0" standalone="no"?>
<!DOCTYPE svg PUBLIC "-//W3C//DTD SVG 20010904//EN"
 "http://www.w3.org/TR/2001/REC-SVG-20010904/DTD/svg10.dtd">
<svg version="1.0" xmlns="http://www.w3.org/2000/svg"
 width="594.000000pt" height="742.000000pt" viewBox="0 0 594.000000 742.000000"
 preserveAspectRatio="xMidYMid meet">

<g transform="translate(0.000000,742.000000) scale(0.100000,-0.100000)"
fill="#6c6c6c" stroke="none">
<path d="M0 6010 l0 -1390 395 0 395 0 0 440 c0 242 3 440 8 440 4 0 378 -371
832 -825 l825 -825 -1225 -2 -1225 -3 -3 -392 -2 -393 2965 0 2965 0 0 395 0
395 -1222 0 -1223 0 825 825 c454 454 828 825 832 825 5 0 8 -198 8 -440 l0
-440 390 0 390 0 0 1392 0 1393 -1480 -1480 -1480 -1480 -1478 1478 c-812 812
-1480 1477 -1485 1477 -4 0 -7 -625 -7 -1390z"/>
<path d="M0 1550 l0 -740 175 0 175 0 0 357 c0 196 3 353 8 349 4 -4 70 -121
147 -259 l141 -252 139 -3 140 -2 145 262 145 261 3 -356 2 -357 175 0 175 0
0 740 0 740 -168 0 -167 0 -220 -441 c-121 -242 -224 -443 -228 -446 -4 -2
-107 196 -227 441 l-220 446 -170 0 -170 0 0 -740z"/>
<path d="M3450 1550 l0 -740 175 0 175 0 0 313 0 313 30 29 c18 17 33 25 38
19 5 -5 100 -153 212 -329 112 -176 208 -326 215 -333 8 -9 58 -12 207 -10
l196 3 -299 465 -298 465 272 273 272 272 -205 0 -205 0 -217 -217 -218 -218
0 218 0 217 -175 0 -175 0 0 -740z"/>
<path d="M2233 1860 c-119 -25 -232 -144 -233 -245 l0 -30 153 -22 c100 -15
153 -19 156 -12 1 5 12 19 24 30 19 17 36 19 180 19 90 0 167 -4 178 -10 16
-9 19 -22 19 -85 l0 -75 -253 0 c-286 0 -326 -7 -394 -65 -23 -20 -54 -61 -70
-93 -24 -49 -28 -69 -28 -147 0 -49 3 -106 8 -126 11 -53 62 -124 113 -158 69
-45 124 -55 241 -41 93 11 348 55 386 66 14 4 17 -1 17 -25 l0 -31 155 0 155
0 0 423 0 422 -24 50 c-29 62 -76 107 -141 137 -48 22 -61 23 -325 25 -151 1
-294 -2 -317 -7z m477 -700 l0 -79 -32 -6 c-66 -11 -287 -35 -322 -35 -47 0
-66 28 -66 100 0 34 6 64 16 78 15 21 20 22 210 22 l194 0 0 -80z"/>
<path d="M5081 1860 c-92 -19 -183 -97 -217 -186 -17 -44 -19 -79 -19 -344 0
-282 1 -297 22 -342 31 -68 99 -131 168 -157 56 -21 70 -22 369 -19 l311 3 50
27 c60 31 104 77 136 138 24 45 24 48 24 360 0 308 -1 316 -23 357 -32 60 -86
111 -151 142 -56 26 -56 26 -341 28 -157 1 -305 -2 -329 -7z m494 -285 c25
-24 25 -24 25 -234 0 -115 -3 -217 -6 -226 -14 -35 -58 -45 -203 -45 -77 0
-151 4 -166 10 -49 18 -57 61 -53 276 4 258 -8 244 215 244 161 0 164 0 188
-25z"/>
<path d="M4090 441 c0 -47 92 -69 130 -31 11 11 20 27 20 35 0 22 -33 18 -48
-5 -7 -11 -19 -20 -27 -20 -8 0 -20 9 -27 20 -17 26 -48 26 -48 1z"/>
<path d="M3014 435 c-9 -23 3 -45 24 -45 11 0 25 7 32 15 16 19 -3 45 -32 45
-10 0 -21 -7 -24 -15z"/>
<path d="M355 345 c-70 -25 -101 -98 -71 -169 52 -125 246 -86 246 51 0 94
-83 149 -175 118z m97 -62 c25 -23 24 -87 -2 -113 -43 -43 -120 -4 -120 60 0
59 77 94 122 53z"/>
<path d="M664 349 c-98 -27 -115 -187 -24 -234 62 -32 146 -11 175 45 l16 30
-31 0 c-17 0 -39 -9 -50 -20 -45 -45 -110 -10 -110 58 0 67 67 97 116 51 13
-13 32 -19 48 -17 23 3 25 5 13 27 -25 50 -93 77 -153 60z"/>
<path d="M1353 350 c-80 -18 -116 -104 -77 -185 36 -77 176 -87 214 -15 9 17
8 20 -13 20 -14 0 -40 -6 -58 -14 -37 -14 -54 -12 -81 12 -39 33 -23 42 77 42
l95 0 0 28 c0 32 -31 87 -57 100 -30 16 -66 20 -100 12z m77 -60 c33 -33 24
-40 -45 -40 -37 0 -65 4 -65 10 0 19 40 50 65 50 14 0 34 -9 45 -20z"/>
<path d="M1921 350 c-104 -25 -125 -186 -31 -235 103 -53 219 35 190 145 -10
38 -59 90 -85 90 -7 0 -19 2 -27 4 -7 2 -28 0 -47 -4z m75 -58 c16 -11 34 -48
34 -72 0 -29 -44 -70 -75 -70 -56 0 -88 88 -48 132 16 18 68 24 89 10z"/>
<path d="M2540 352 c-65 -11 -110 -82 -96 -154 3 -19 20 -48 37 -64 26 -25 38
-29 89 -29 53 0 63 3 91 31 38 38 48 94 26 146 -21 50 -86 81 -147 70z m80
-72 c30 -30 27 -83 -6 -109 -34 -26 -54 -26 -88 0 -52 41 -23 129 44 129 17 0
39 -9 50 -20z"/>
<path d="M4880 352 c-95 -16 -132 -148 -61 -216 53 -51 161 -43 191 14 9 18 8
20 -15 20 -14 0 -39 -7 -55 -15 -21 -11 -36 -12 -54 -5 -21 8 -46 37 -46 54 0
3 43 6 96 6 l97 0 -6 41 c-10 72 -71 115 -147 101z m70 -62 c33 -33 24 -40
-45 -40 -37 0 -65 4 -65 10 0 19 40 50 65 50 14 0 34 -9 45 -20z"/>
<path d="M5793 353 c-12 -2 -27 -11 -33 -19 -16 -18 -30 -18 -30 1 0 9 -9 15
-25 15 l-25 0 0 -170 0 -170 25 0 c24 0 25 3 25 60 0 64 3 68 34 45 11 -8 37
-15 58 -15 81 0 129 91 98 184 -17 51 -69 79 -127 69z m61 -75 c36 -51 6 -128
-49 -128 -31 0 -75 41 -75 70 0 24 18 61 34 72 24 16 75 8 90 -14z"/>
<path d="M0 230 l0 -120 30 0 c29 0 30 2 30 44 0 72 27 72 80 0 28 -37 39 -44
67 -44 18 0 33 3 33 6 0 3 -21 30 -46 60 l-46 54 31 38 c16 22 37 45 46 52 24
20 18 30 -17 30 -27 -1 -40 -9 -68 -45 -23 -30 -43 -45 -57 -45 -21 0 -23 5
-23 45 0 43 -1 45 -30 45 l-30 0 0 -120z"/>
<path d="M880 230 l0 -120 30 0 30 0 0 76 c0 41 3 73 8 70 4 -2 21 -36 37 -75
26 -62 33 -71 56 -71 23 0 31 10 62 77 l36 78 0 -77 1 -78 30 0 30 0 0 121 0
120 -41 -3 -41 -3 -35 -82 c-20 -45 -39 -80 -43 -78 -4 2 -22 40 -41 84 l-34
81 -42 0 -43 0 0 -120z"/>
<path d="M1550 325 c0 -23 4 -25 45 -25 l45 0 0 -95 0 -95 30 0 30 0 0 95 0
95 45 0 c41 0 45 2 45 25 l0 25 -120 0 -120 0 0 -25z"/>
<path d="M2175 273 c-3 -43 -7 -85 -8 -93 -1 -8 -12 -16 -25 -18 -16 -2 -22
-10 -22 -27 0 -32 14 -39 55 -25 40 13 55 50 55 138 l0 52 45 0 45 0 0 -95 0
-95 30 0 30 0 0 120 0 120 -99 0 -99 0 -7 -77z"/>
<path d="M2760 230 l0 -120 30 0 30 0 0 95 0 95 65 0 c63 0 65 1 65 25 0 25 0
25 -95 25 l-95 0 0 -120z"/>
<path d="M3010 230 l0 -120 30 0 30 0 0 120 0 120 -30 0 -30 0 0 -120z"/>
<path d="M3140 296 c0 -43 5 -61 24 -83 21 -25 31 -28 85 -28 l61 0 0 -37 c0
-36 2 -38 30 -38 l30 0 0 120 0 120 -30 0 c-30 0 -30 -1 -30 -54 0 -51 -1 -54
-30 -60 -17 -3 -41 -1 -55 4 -22 8 -25 15 -25 60 0 49 -1 50 -30 50 -30 0 -30
-1 -30 -54z"/>
<path d="M3440 230 l0 -120 30 0 c29 0 30 2 30 45 l0 45 55 0 55 0 0 -45 c0
-43 1 -45 30 -45 l30 0 0 120 0 120 -30 0 c-29 0 -30 -2 -30 -45 l0 -45 -55 0
-55 0 0 45 c0 43 -1 45 -30 45 l-30 0 0 -120z"/>
<path d="M3740 230 l0 -120 33 0 c30 0 39 7 82 70 27 39 52 70 57 70 4 0 8
-31 8 -70 0 -68 1 -70 25 -70 l25 0 0 120 0 120 -27 0 c-23 0 -37 -14 -83 -78
l-55 -77 -3 78 -3 77 -29 0 -30 0 0 -120z"/>
<path d="M4050 229 l0 -120 32 3 c27 3 40 15 85 77 l53 74 0 -76 0 -77 30 0
30 0 0 120 0 120 -29 0 c-26 0 -37 -11 -83 -76 l-53 -76 -3 76 -3 76 -29 0
-30 0 0 -121z"/>
<path d="M4480 230 l0 -119 103 -3 102 -3 3 -27 c3 -24 8 -28 33 -28 29 0 29
1 29 55 0 48 -2 55 -20 55 -19 0 -20 7 -20 95 l0 95 -30 0 -30 0 0 -95 0 -95
-55 0 -55 0 0 95 0 95 -30 0 -30 0 0 -120z"/>
<path d="M5090 230 l0 -120 30 0 c29 0 30 2 30 45 l0 45 55 0 55 0 0 -45 c0
-43 1 -45 30 -45 l30 0 0 120 0 120 -30 0 c-29 0 -30 -2 -30 -45 l0 -45 -55 0
-55 0 0 45 c0 43 -1 45 -30 45 l-30 0 0 -120z"/>
<path d="M5380 325 c0 -23 4 -25 45 -25 l45 0 0 -95 0 -95 30 0 30 0 0 95 0
95 45 0 c41 0 45 2 45 25 l0 25 -120 0 -120 0 0 -25z"/>
</g>
</svg>
