<svg width="12" height="16" viewBox="0 0 12 16" fill="none" xmlns="http://www.w3.org/2000/svg">
<path fill-rule="evenodd" clip-rule="evenodd" d="M6 0C7.88236 0 9.63027 0.876327 10.7731 2.4213C12.409 4.63506 12.409 7.70205 10.7731 9.91581L6.39133 15.8009C6.19368 16.0664 5.80632 16.0664 5.60867 15.8009L1.22686 9.91581C-0.408955 7.70205 -0.408955 4.63506 1.22686 2.4213C2.36973 0.876327 4.11764 0 6 0ZM6 9C7.65685 9 9 7.65685 9 6C9 4.34315 7.65685 3 6 3C4.34315 3 3 4.34315 3 6C3 7.65685 4.34315 9 6 9Z" fill="#42414D"/>
</svg>
