<svg width="24" height="24" viewBox="0 0 24 24" fill="none" xmlns="http://www.w3.org/2000/svg">
<rect x="1" y="1" width="22" height="22" rx="11" fill="white"/>
<path d="M12.1552 18C11.2731 18 10.5381 17.8692 9.95009 17.6076C9.36207 17.3352 8.92105 16.9537 8.62704 16.4632C8.33303 15.9619 8.18603 15.3678 8.18603 14.6812C8.18603 14.5286 8.19147 14.3815 8.20236 14.2398C8.22414 14.0872 8.25681 13.9401 8.30036 13.7984H7.5V12.5886H8.92105C9.01906 12.4687 9.12795 12.3597 9.24773 12.2616C9.36751 12.1526 9.49274 12.049 9.62341 11.951C9.76497 11.8529 9.91198 11.7602 10.0644 11.673C10.2169 11.5749 10.3748 11.4877 10.5381 11.4114H7.5V10.2016H12.9555C13.0971 10.0708 13.2005 9.92371 13.2659 9.76022C13.3421 9.58583 13.3802 9.38965 13.3802 9.17166C13.3802 8.93188 13.3203 8.73025 13.2005 8.56676C13.0917 8.40327 12.9283 8.27793 12.7105 8.19074C12.4927 8.10354 12.2205 8.05995 11.8938 8.05995C11.5998 8.05995 11.3058 8.08719 11.0118 8.14169C10.7287 8.19619 10.4292 8.27248 10.1134 8.37057C9.79764 8.46866 9.46007 8.59401 9.10073 8.74659L8.3657 6.81744C8.93194 6.56676 9.51996 6.37057 10.1298 6.22888C10.7505 6.07629 11.4038 6 12.0898 6C12.8521 6 13.5054 6.12534 14.0499 6.37602C14.6053 6.6158 15.0354 6.97548 15.3403 7.45504C15.6452 7.93461 15.7976 8.52316 15.7976 9.22071C15.7976 9.3951 15.7868 9.56403 15.765 9.72752C15.7432 9.89101 15.7105 10.049 15.667 10.2016H16.5V11.4114H14.9809C14.8612 11.5422 14.725 11.6676 14.5726 11.7875C14.431 11.8965 14.2786 12 14.1152 12.0981C13.9628 12.1853 13.7995 12.2725 13.6252 12.3597C13.4619 12.436 13.2931 12.5123 13.1189 12.5886H16.5V13.7984H10.9138C10.8049 13.9183 10.7232 14.0545 10.6688 14.2071C10.6252 14.3488 10.6034 14.5068 10.6034 14.6812C10.6034 14.9428 10.6633 15.1717 10.7831 15.3678C10.9138 15.5531 11.1044 15.7003 11.3548 15.8093C11.6162 15.9074 11.9319 15.9564 12.3022 15.9564C12.8902 15.9564 13.4673 15.891 14.0336 15.7602C14.5998 15.6185 15.1661 15.4332 15.7323 15.2044V17.2643C15.2641 17.4932 14.725 17.673 14.1152 17.8038C13.5054 17.9346 12.8521 18 12.1552 18Z" fill="#C2C2D1"/>
<rect x="1" y="1" width="22" height="22" rx="11" stroke="#C2C2D1" stroke-width="2"/>
</svg>
