<svg width="30" height="30" viewBox="0 0 30 30" fill="none" xmlns="http://www.w3.org/2000/svg">
<path fill-rule="evenodd" clip-rule="evenodd" d="M24.0387 9.01839C24.1294 8.98987 24.2488 9.04691 24.3681 9.20379C24.3681 9.20379 24.3681 9.20379 29.7636 14.4615C30.0788 14.7753 30.0788 15.2507 29.7636 15.4836C29.7636 15.4836 29.7636 15.4836 24.3681 20.8222C24.2488 20.979 24.1294 21.0171 24.0387 20.9695C23.948 20.922 23.8907 20.7841 23.8907 20.5845V9.36067C23.8907 9.16576 23.948 9.04692 24.0387 9.01839ZM5.96132 20.9816C5.8706 21.0101 5.75123 20.9531 5.63186 20.7962C5.63186 20.7962 5.63186 20.7962 0.236352 15.5385C-0.078784 15.2247 -0.078784 14.7493 0.236352 14.5164C0.236352 14.5164 0.236352 14.5164 5.63186 9.17784C5.75123 9.02096 5.8706 8.98293 5.96132 9.03047C6.05204 9.07801 6.10934 9.21587 6.10934 9.41553V20.6393C6.10934 20.8342 6.05205 20.9531 5.96132 20.9816ZM20.8312 5.63913C15.4875 0.239124 15.4875 0.239124 15.4875 0.239124C15.2438 -0.0797081 14.775 -0.0797081 14.4563 0.239124C9.2062 5.63913 9.2062 5.63913 9.2062 5.63913C9.05628 5.75163 8.98121 5.88289 9.01875 5.95785C9.05628 6.05158 9.16878 6.10788 9.35623 6.10788H11.5125C11.906 6.10788 12.225 6.42688 12.225 6.82038V11.1891C12.225 11.5826 12.544 11.9016 12.9375 11.9016H17.0625C17.456 11.9016 17.775 11.5826 17.775 11.1891V6.82038C17.775 6.42688 18.094 6.10788 18.4875 6.10788H20.5875C20.775 6.10788 20.9249 6.05158 20.9625 5.95785C21.0188 5.88289 20.9813 5.75163 20.8312 5.63913ZM9.1653 24.3609C14.509 29.7609 14.509 29.7609 14.509 29.7609C14.7528 30.0797 15.2215 30.0797 15.5402 29.7609C20.7903 24.3609 20.7903 24.3609 20.7903 24.3609C20.9402 24.2484 21.0153 24.1171 20.9778 24.0421C20.9402 23.9484 20.8277 23.8921 20.6403 23.8921H18.484C18.0905 23.8921 17.7715 23.5731 17.7715 23.1796V18.8109C17.7715 18.4174 17.4525 18.0984 17.059 18.0984H12.9341C12.5406 18.0984 12.2216 18.4174 12.2216 18.8109V23.1796C12.2216 23.5731 11.9026 23.8921 11.5091 23.8921H9.40906C9.22149 23.8921 9.07157 23.9484 9.03403 24.0421C8.97773 24.1171 9.01526 24.2484 9.1653 24.3609Z" fill="#ED1C24"/>
</svg>
