<svg width="16" height="16" viewBox="0 0 16 16" fill="none" xmlns="http://www.w3.org/2000/svg">
<path d="M0 1.99934C0 0.895136 0.89543 0 2 0H4.6446C5.62227 0 6.45666 0.706594 6.61738 1.67065L6.98661 3.88526C7.13872 4.79762 6.60426 5.68501 5.72649 5.97751L5.24444 6.13814C5.04305 6.20525 4.92917 6.41795 4.98503 6.6227L5.48668 8.46146C5.76338 9.4757 6.52883 10.2846 7.52649 10.617L8.74681 11.0237C8.91793 11.0807 9.10607 11.0162 9.20612 10.8661L9.7893 9.99166C10.2896 9.24148 11.2302 8.91884 12.0859 9.20395L14.6325 10.0525C15.4491 10.3247 16 11.0887 16 11.9493V14.0007C16 15.1049 15.1046 16 14 16H12.4C5.55167 16 0 10.4502 0 3.60408V1.99934Z" fill="#42414D"/>
</svg>
