<svg width="48" height="48" viewBox="0 0 48 48" fill="none" xmlns="http://www.w3.org/2000/svg">
<rect x="1" y="1" width="46" height="46" rx="23" fill="#F05454"/>
<path d="M30.4803 30.9999C31.9549 30.9999 33.341 30.4516 34.3833 29.4557C35.426 28.4597 36 27.1357 36 25.7275C36 25.0034 35.8742 24.3184 35.6263 23.6918C35.3702 23.0447 34.9903 22.4759 34.4968 22.0007C33.447 20.9895 31.9337 20.4551 30.1207 20.4551C30.1068 20.4551 30.0963 20.4544 30.0888 20.4535C30.0337 20.3105 30.0912 19.6979 30.7546 18.6766C31.4501 17.6063 32.501 16.5772 33.6374 15.8538C33.8163 15.7401 33.8959 15.5276 33.8336 15.3314C33.7714 15.1349 33.582 15.0007 33.3671 15.0007C32.4281 15.0007 30.3387 15.6069 28.4313 17.2772C26.8478 18.6633 24.9608 21.1951 24.9608 25.3845C24.9608 26.9681 25.5328 28.4072 26.5711 29.4369C27.5876 30.4445 28.9761 31 30.4802 31L30.4803 30.9999Z" fill="white"/>
<path d="M13.61 29.4357C14.6272 30.444 16.0154 30.9992 17.5195 30.9992C18.9941 30.9992 20.3801 30.4509 21.4225 29.4549C22.4652 28.4589 23.0392 27.135 23.0392 25.7268C23.0392 25.0027 22.9133 24.3176 22.6654 23.691C22.4094 23.044 22.0295 22.4752 21.536 21.9999C20.4862 20.9887 18.9729 20.4543 17.1599 20.4543C17.146 20.4543 17.1354 20.4537 17.128 20.4527C17.0729 20.3098 17.1303 19.6971 17.7938 18.6759C18.4893 17.6055 19.5401 16.5764 20.6766 15.853C20.8555 15.7393 20.9351 15.5269 20.8728 15.3307C20.8106 15.1342 20.6212 15 20.4062 15C19.4673 15 17.3779 15.6062 15.4704 17.2765C13.887 18.6626 12 21.1943 12 25.3838C11.9997 26.967 12.5717 28.4064 13.6099 29.4359L13.61 29.4357Z" fill="white"/>
<rect x="1" y="1" width="46" height="46" rx="23" stroke="white" stroke-width="2"/>
</svg>
