<svg width="24" height="24" viewBox="0 0 24 24" fill="none" xmlns="http://www.w3.org/2000/svg">
<path fill-rule="evenodd" clip-rule="evenodd" d="M24 12C24 18.6274 18.6274 24 12 24C5.37258 24 0 18.6274 0 12C0 5.37258 5.37258 0 12 0C18.6274 0 24 5.37258 24 12ZM5.39311 11.3735C5.40773 15.8645 8.81739 18.6608 12.0939 18.65C16.1393 18.6361 18.533 15.3104 18.523 12.2817C18.513 9.25303 16.8643 7.05869 13.233 6.17433C13.2231 6.11016 13.2182 6.04531 13.2184 5.98037C13.2107 3.68905 14.9378 1.66942 17.1083 1.21916C16.9036 1.14989 16.5696 1.12449 16.2501 1.12449C13.7679 1.13296 11.0348 2.19434 9.03367 3.84837C6.98556 5.54166 5.38387 8.40331 5.39311 11.3735Z" fill="#E60000"/>
</svg>
