<svg width="16" height="16" viewBox="0 0 16 16" fill="none" xmlns="http://www.w3.org/2000/svg">
<path fill-rule="evenodd" clip-rule="evenodd" d="M16 8C16 12.4183 12.4183 16 8 16C3.58172 16 0 12.4183 0 8C0 3.58172 3.58172 0 8 0C12.4183 0 16 3.58172 16 8ZM3.5954 7.58232C3.60515 10.5764 5.87826 12.4405 8.0626 12.4333C10.7595 12.4241 12.3553 10.2069 12.3487 8.1878C12.342 6.16869 11.2429 4.70579 8.82201 4.11622C8.81539 4.07344 8.81213 4.0302 8.81226 3.98691C8.80713 2.45937 9.95856 1.11295 11.4056 0.812776C11.2691 0.766595 11.0464 0.749663 10.8334 0.749663C9.17863 0.755306 7.35655 1.46289 6.02245 2.56558C4.65704 3.69444 3.58925 5.60221 3.5954 7.58232Z" fill="#42414D"/>
</svg>
